<svg xmlns="http://www.w3.org/2000/svg" viewBox="0 0 655.71 234.89"><defs><style>.cls-1{fill:#0a041c;}.cls-2,.cls-3,.cls-5,.cls-7,.cls-8{fill:#fff;}.cls-2,.cls-3,.cls-7,.cls-8{stroke:#000;}.cls-2,.cls-3,.cls-4,.cls-5,.cls-6,.cls-7,.cls-8,.cls-9{stroke-miterlimit:10;}.cls-2{stroke-width:1.18px;}.cls-3{stroke-width:0.28px;}.cls-4,.cls-9{stroke:#fff;}.cls-4,.cls-7{stroke-width:0.84px;}.cls-5{stroke:#1d1d1b;}.cls-5,.cls-6,.cls-9{stroke-width:0.76px;}.cls-6{stroke:#f7f9fa;}.cls-8{stroke-width:0.64px;}.cls-9{fill:#1d1d1b;}</style></defs><g id="Layer_2" data-name="Layer 2"><g id="Layer_1-2" data-name="Layer 1"><path class="cls-1" d="M269.25,92.67V73.07c0-13.43,6.36-21.85,21.22-21.85h20c14.86,0,21.22,8.42,21.22,21.85v.26a2,2,0,0,1-2.24,2.24h-8c-1.43,0-2.24-.62-2.24-1.52V72.62c0-7.79-2.59-9.49-8.77-9.49h-20c-6.18,0-8.77,1.7-8.77,9.49v20.5c0,7.69,2.77,9.4,8.77,9.4h20c6,0,8.77-1.71,8.77-9.4v-1.7a2,2,0,0,1,2.24-2.24h8c1.43,0,2.24.63,2.24,1.7v1.79c0,13.34-6.36,21.75-21.22,21.75h-20C275.61,114.42,269.25,106,269.25,92.67Z"/><path class="cls-1" d="M339.26,94.55V83.72c0-12.44,4.12-19.61,18.53-19.61h12.62c14.41,0,18.53,7.17,18.53,19.61v8A2,2,0,0,1,386.7,94H351.08V95.8c0,6.18,1.61,7.61,7,7.61h24.61a2,2,0,0,1,2.24,2.24v6.53a2,2,0,0,1-2.24,2.24H357.79C343.38,114.42,339.26,107.35,339.26,94.55ZM377.13,85V82.64c0-6.08-1.53-7.52-7-7.52H358.06c-5.46,0-7,1.44-7,7.52V85Z"/><path class="cls-1" d="M397.18,112.18V48.72a2,2,0,0,1,2.24-2.24h7.34A2,2,0,0,1,409,48.72v63.46a2,2,0,0,1-2.24,2.24h-7.34A2,2,0,0,1,397.18,112.18Z"/><path class="cls-1" d="M419.2,112.18V48.72a2,2,0,0,1,2.24-2.24h7.34A2,2,0,0,1,431,48.72v63.46a2,2,0,0,1-2.24,2.24h-7.34A2,2,0,0,1,419.2,112.18Z"/><path class="cls-1" d="M481.06,64.11h7.34a2,2,0,0,1,2.23,2.24v45.83a2,2,0,0,1-2.23,2.24h-7.34a2,2,0,0,1-2.24-2.24V108.6c-2.15,3.76-6.09,5.82-13,5.82H459.3c-14.32,0-18.53-7.07-18.53-19.87V66.35A2,2,0,0,1,443,64.11h7.34a2,2,0,0,1,2.24,2.24V95.8c0,6.27,1.61,7.61,7,7.61h12.26c4.84,0,7-1.16,7-7.61V66.35A2,2,0,0,1,481.06,64.11Z"/><path class="cls-1" d="M500.84,112.18V48.72a2,2,0,0,1,2.24-2.24h7.34a2,2,0,0,1,2.24,2.24v63.46a2,2,0,0,1-2.24,2.24h-7.34A2,2,0,0,1,500.84,112.18Z"/><path class="cls-1" d="M521.79,94.55V83.72c0-12.44,4.12-19.61,18.53-19.61h14.86c14.41,0,18.53,7.17,18.53,19.61V94.55c0,12.8-4.12,19.87-18.53,19.87H540.32C525.91,114.42,521.79,107.35,521.79,94.55Zm33.12,8.86c5.37,0,7-1.43,7-7.61V82.64c0-6.08-1.52-7.52-7-7.52H540.59c-5.46,0-7,1.44-7,7.52V95.8c0,6.18,1.61,7.61,7,7.61Z"/><path class="cls-1" d="M582.84,56.6V48.72a2,2,0,0,1,2.24-2.24h7.34a2,2,0,0,1,2.24,2.24V56.6a2,2,0,0,1-2.24,2.23h-7.34A2,2,0,0,1,582.84,56.6Zm0,55.58V66.35a2,2,0,0,1,2.24-2.24h7.34a2,2,0,0,1,2.24,2.24v45.83a2,2,0,0,1-2.24,2.24h-7.34A2,2,0,0,1,582.84,112.18Z"/><path class="cls-1" d="M646.13,46.48h7.34a2,2,0,0,1,2.24,2.24v63.46a2,2,0,0,1-2.24,2.24h-7.34a2,2,0,0,1-2.24-2.24v-3.49c-2.15,3.76-6.09,5.73-13,5.73h-8.59c-14.41,0-18.53-7.16-18.53-19.6V84c0-12.8,4.12-19.88,18.53-19.88h8.59c6.89,0,10.83,2,13,5.73V48.72A2,2,0,0,1,646.13,46.48Zm-2.24,49.41V82.73c0-6.35-2.24-7.61-7-7.61H622.59c-5.38,0-7,1.44-7,7.61V95.89c0,6.09,1.53,7.52,7,7.52h14.32C641.74,103.41,643.89,102.16,643.89,95.89Z"/><rect class="cls-2" x="83.94" y="56.7" width="173.65" height="27.56" transform="translate(-11.17 102.54) rotate(-32.42)"/><rect class="cls-3" x="94.04" y="91.93" width="43.46" height="26.75" transform="translate(-38.41 78.49) rotate(-32.42)"/><rect class="cls-3" x="130.73" y="68.63" width="43.46" height="26.75" transform="translate(-20.2 94.52) rotate(-32.42)"/><rect class="cls-3" x="167.24" y="45.43" width="43.46" height="26.75" transform="translate(-2.07 110.49) rotate(-32.42)"/><rect class="cls-3" x="203.93" y="22.13" width="43.46" height="26.75" transform="translate(16.14 126.53) rotate(-32.42)"/><path d="M255.69,45.62l-3.78-5.94,2.15-1.37-1.89-3L104.45,129.17l1.89,3,1.8-1.14,3.78,5.95-1.8,1.14,1.89,3L253.37,49.83l2.32-4.21Zm-129,82-12.42,7.89-3.78-5.95,12.42-7.88Zm15.84-10.06-12.42,7.89-3.78-6,12.42-7.88Zm15.83-10.06-12.41,7.89-3.78-5.95,12.42-7.88ZM174.17,97.4l-12.41,7.89-3.78-6,12.42-7.88ZM190,87.34,177.6,95.23l-3.78-6,12.41-7.89Zm15.84-10.06-12.42,7.89-3.77-6,12.41-7.89Zm15.84-10.06-12.42,7.89-3.77-6,12.41-7.89Zm15.84-10.06-12.42,7.89-3.78-5.95,12.42-7.89ZM253.37,47.1,241,55l-3.78-6,12.42-7.89Z"/><path d="M233.25,10.29l-3.78-5.95L231.62,3l-1.89-3L82,93.83l1.89,3,1.8-1.15,3.78,6-1.8,1.14,1.89,3L237.28,11.9l-1.89-3Zm-129,82L91.8,100.13,88,94.19l12.41-7.89Zm15.84-10.06-12.42,7.88-3.77-5.94,12.41-7.89Zm15.84-10.06L123.47,80l-3.78-6,12.42-7.88Zm15.84-10.06L139.31,70l-3.78-6L148,56.12ZM167.57,52l-12.42,7.88-3.78-6,12.42-7.88ZM183.4,41.94,171,49.83l-3.78-5.95L179.63,36Zm15.84-10.06-12.41,7.89-3.78-6,12.42-7.88Zm15.84-10.06-12.41,7.89-3.78-5.95,12.41-7.88Zm15.84-10.06L218.5,19.65l-3.77-5.95,12.41-7.88Z"/><path d="M106.36,115.54A56.16,56.16,0,1,0,9.58,172.1m89-58.58a2.32,2.32,0,1,1-.85,3.17A2.32,2.32,0,0,1,98.62,113.52ZM83.89,98.6a2.32,2.32,0,1,1,.51,3.24A2.33,2.33,0,0,1,83.89,98.6Zm8.81,21a9.55,9.55,0,1,1-13-3.5A9.54,9.54,0,0,1,92.7,119.62ZM74.53,93.76a2.31,2.31,0,1,1,1.17,3.06A2.32,2.32,0,0,1,74.53,93.76ZM56.15,88a2.32,2.32,0,1,1-2.31,2.31A2.31,2.31,0,0,1,56.15,88Zm0,10.49a9.55,9.55,0,1,1-9.55,9.55A9.54,9.54,0,0,1,56.15,98.52ZM45.2,89.18a2.32,2.32,0,1,1-1.79,2.75A2.32,2.32,0,0,1,45.2,89.18Zm-20,8.91a2.32,2.32,0,1,1-.51,3.24A2.33,2.33,0,0,1,25.18,98.09Zm7.47,18a9.55,9.55,0,1,1-13,3.5A9.55,9.55,0,0,1,32.65,116.12ZM17,105.46a2.32,2.32,0,1,1,.17,3.27A2.31,2.31,0,0,1,17,105.46Zm-11,19a2.32,2.32,0,1,1,1.49,2.92A2.32,2.32,0,0,1,6,124.43ZM3.75,135.21a2.32,2.32,0,1,1,2.06,2.55A2.32,2.32,0,0,1,3.75,135.21Zm0,11a2.32,2.32,0,1,1,2.55,2.07A2.31,2.31,0,0,1,3.75,146.22ZM9,158.49a2.32,2.32,0,1,1,1.49-2.92A2.33,2.33,0,0,1,9,158.49Zm4.73,9.42a2.32,2.32,0,1,1,.85-3.17A2.32,2.32,0,0,1,13.69,167.91Zm.85-51.22a2.32,2.32,0,1,1-.85-3.17A2.32,2.32,0,0,1,14.54,116.69Zm5.07,45.13a9.55,9.55,0,1,1,13,3.49A9.56,9.56,0,0,1,19.61,161.82Zm17-65a2.32,2.32,0,1,1,1.17-3.06A2.32,2.32,0,0,1,36.61,96.82Zm32.28-4.89a2.32,2.32,0,1,1-1.78-2.75A2.3,2.3,0,0,1,68.89,91.93Zm26.25,16.8a2.32,2.32,0,1,1,.17-3.27A2.31,2.31,0,0,1,95.14,108.73Z"/><polygon class="cls-4" points="165.33 223.8 98.73 223.8 114.03 157.2 150.04 157.2 165.33 223.8"/><rect class="cls-5" x="122.95" y="182.01" width="18.16" height="27.01" rx="7.94"/><path class="cls-6" d="M257.31,27.83V179.11a7.94,7.94,0,0,1-7.93,7.94H14.69a8,8,0,0,1-7.94-7.94V169"/><polyline class="cls-7" points="244.83 34.99 244.83 164.38 19.24 164.38"/><rect class="cls-8" x="19.24" y="169.03" width="14.83" height="11.73" rx="3.56"/><rect class="cls-8" x="230" y="169.03" width="14.83" height="11.73" rx="3.56"/><rect class="cls-8" x="203.66" y="169.03" width="14.83" height="11.73" rx="3.56"/><rect class="cls-8" x="177.31" y="169.03" width="14.83" height="11.73" rx="3.56"/><rect class="cls-8" x="150.97" y="169.03" width="14.83" height="11.73" rx="3.56"/><rect class="cls-8" x="124.62" y="169.03" width="14.83" height="11.73" rx="3.56"/><rect class="cls-8" x="98.27" y="169.03" width="14.83" height="11.73" rx="3.56"/><rect class="cls-8" x="71.93" y="169.03" width="14.83" height="11.73" rx="3.56"/><rect class="cls-8" x="45.58" y="169.03" width="14.83" height="11.73" rx="3.56"/><rect class="cls-9" x="79.34" y="221.47" width="102.52" height="13.04" rx="4.24"/><path d="M460.89,135.06v18.05h-1.6v-9.54c0-1.91,0-3.51.15-5.11l-.1,0c-.47,1.29-1.19,3-1.86,4.74l-2.22,5.68h-1.59l-2.22-5.68c-.67-1.72-1.39-3.45-1.86-4.74l-.1,0c.1,1.6.15,3.2.15,5.11v9.54h-1.59V135.06h1.7l3.22,7.79c.46,1.16,1.11,3,1.44,4h.11c.33-1,1-2.86,1.44-4l3.22-7.79Z"/><path d="M464.25,148.52v-4.36c0-3.17,1.8-4.9,4.51-4.9s4.51,1.73,4.51,4.9v4.36c0,3.17-1.8,4.9-4.51,4.9S464.25,151.69,464.25,148.52Zm7.47,0v-4.36c0-2.34-1.13-3.4-3-3.4s-3,1.06-3,3.4v4.36c0,2.35,1.14,3.4,3,3.4S471.72,150.87,471.72,148.52Z"/><path d="M483.64,139.57l-3.84,13.54h-1.65l-3.84-13.54h1.6l2.14,7.92c.28,1.11.69,2.89.87,3.63H479c.18-.74.59-2.52.87-3.63l2.14-7.92Z"/><path d="M485.06,135.84a1.24,1.24,0,1,1,1.24,1.23A1.17,1.17,0,0,1,485.06,135.84Zm.49,3.73h1.52v13.54h-1.52Z"/><path d="M499.22,149a4.32,4.32,0,0,1-4.72,4.41c-2.63,0-4.35-1.73-4.35-4.83v-4.45c0-3.1,1.75-4.83,4.38-4.83S499,141,499,144.09v3h-7.35v1.46c0,2.27,1.09,3.33,2.86,3.33,2,0,2.94-.93,3.15-2.91Zm-7.53-4.87v1.57h5.83v-1.57c0-2.27-1.11-3.33-3-3.33S491.69,141.82,491.69,144.09Z"/><path d="M501.19,149.09h1.52a2.66,2.66,0,0,0,3,2.83c1.68,0,2.66-.85,2.66-2.29,0-3.3-7-2.09-7-6.73,0-2.19,1.62-3.64,4.07-3.64a3.93,3.93,0,0,1,4.2,4.15h-1.52a2.46,2.46,0,0,0-2.68-2.68c-1.6,0-2.53.83-2.53,2.22,0,3.17,7,2,7,6.73,0,2.24-1.67,3.74-4.2,3.74A4.17,4.17,0,0,1,501.19,149.09Z"/><path d="M526.49,143.75v9.36h-1.32l-.13-1.27a3.6,3.6,0,0,1-3.12,1.58,4,4,0,0,1-4.27-4.15c0-2.61,1.67-4.05,4.63-4.05H525v-1.44c0-2-.93-3.05-2.69-3.05a2.47,2.47,0,0,0-2.7,2.38h-1.52a3.94,3.94,0,0,1,4.28-3.85C524.91,139.26,526.49,141,526.49,143.75ZM525,149.29v-2.65h-2.74c-2,0-3,.93-3,2.65s1.21,2.63,3,2.63A2.57,2.57,0,0,0,525,149.29Z"/><path d="M538.56,144.45v8.66H537v-8.43c0-2.74-.72-4-2.5-4s-3.12,1.57-3.12,4.2v8.2H529.9V139.57h1.26l.26,1.68a3.83,3.83,0,0,1,3.5-2C537.12,139.26,538.56,140.73,538.56,144.45Z"/><path d="M550.32,134.44v18.67h-1.23l-.21-1.27a3.84,3.84,0,0,1-3.2,1.58c-2.45,0-4.2-1.76-4.2-5.18v-3.9c0-3.35,1.6-5.08,4.2-5.08a3.81,3.81,0,0,1,3.15,1.53v-6.35Zm-1.49,13.85v-3.95c0-2.16-1.11-3.66-2.81-3.66-2,0-3,1.08-3,3.66v3.9c0,2.65,1.11,3.76,3,3.76C547.56,152,548.83,150.81,548.83,148.29Z"/><path d="M558.74,149.09h1.52a2.66,2.66,0,0,0,3,2.83c1.68,0,2.66-.85,2.66-2.29,0-3.3-7-2.09-7-6.73,0-2.19,1.62-3.64,4.07-3.64a3.93,3.93,0,0,1,4.2,4.15h-1.52a2.46,2.46,0,0,0-2.68-2.68c-1.6,0-2.52.83-2.52,2.22,0,3.17,7,2,7,6.73,0,2.24-1.68,3.74-4.21,3.74A4.17,4.17,0,0,1,558.74,149.09Z"/><path d="M575.45,151.79v1.45h-.77c-2.48,0-3.84-1.55-3.84-4.15V141h-2.07v-1.42h2.07v-3.12h1.52v3.12h2.78V141h-2.78v8.1c0,1.78.72,2.7,2.32,2.7Z"/><path d="M584.09,139.42v1.65a4.8,4.8,0,0,0-1.7-.28c-1.93,0-3.2,1.54-3.2,4.12v8.2h-1.52V139.57h1.26l.26,1.7v0a3.88,3.88,0,0,1,3.54-2A5.71,5.71,0,0,1,584.09,139.42Z"/><path d="M594.74,149a4.32,4.32,0,0,1-4.72,4.41c-2.62,0-4.35-1.73-4.35-4.83v-4.45c0-3.1,1.75-4.83,4.38-4.83s4.51,1.73,4.51,4.83v3h-7.34v1.46c0,2.27,1.08,3.33,2.86,3.33,2,0,2.94-.93,3.14-2.91Zm-7.52-4.87v1.57H593v-1.57c0-2.27-1.11-3.33-3-3.33S587.22,141.82,587.22,144.09Z"/><path d="M605.73,143.75v9.36h-1.31l-.13-1.27a3.62,3.62,0,0,1-3.12,1.58,4,4,0,0,1-4.28-4.15c0-2.61,1.68-4.05,4.64-4.05h2.68v-1.44c0-2-.93-3.05-2.68-3.05a2.48,2.48,0,0,0-2.71,2.38H597.3a4,4,0,0,1,4.28-3.85C604.16,139.26,605.73,141,605.73,143.75Zm-1.52,5.54v-2.65h-2.73c-2,0-3,.93-3,2.65s1.21,2.63,3,2.63A2.57,2.57,0,0,0,604.21,149.29Z"/><path d="M624.53,144.5v8.61H623v-8.48c0-2.84-.85-3.92-2.32-3.92-1.83,0-3.09,1.57-3.09,4.2v8.2h-1.52v-8.48c0-2.84-.9-3.92-2.4-3.92-1.8,0-3,1.57-3,4.2v8.2h-1.52V139.57h1.27l.23,1.76a3.62,3.62,0,0,1,3.38-2.07,3.26,3.26,0,0,1,3.24,2.61,3.84,3.84,0,0,1,3.77-2.61C623.12,139.26,624.53,140.91,624.53,144.5Z"/><path d="M627.3,135.84a1.24,1.24,0,1,1,1.24,1.23A1.17,1.17,0,0,1,627.3,135.84Zm.49,3.73h1.52v13.54h-1.52Z"/><path d="M641.38,144.45v8.66h-1.52v-8.43c0-2.74-.72-4-2.5-4s-3.12,1.57-3.12,4.2v8.2h-1.52V139.57H634l.26,1.68a3.85,3.85,0,0,1,3.51-2C639.94,139.26,641.38,140.73,641.38,144.45Z"/><path d="M653.17,139.57V154c0,2.42-1.7,4-4.3,4a4,4,0,0,1-4.31-3.91H646a2.55,2.55,0,0,0,2.84,2.5,2.5,2.5,0,0,0,2.78-2.63v-2.63a3.71,3.71,0,0,1-3,1.29c-2.6,0-4.36-1.73-4.36-4.83v-3.48c0-3.37,1.76-5.13,4.31-5.13a3.58,3.58,0,0,1,3.09,1.68l.21-1.37Zm-1.52,8.3v-3.73c0-2.35-1.24-3.43-2.73-3.43-1.91,0-3.07,1.08-3.07,3.68v3.48c0,2.3,1.16,3.38,3.07,3.38C650.62,151.25,651.65,150.17,651.65,147.87Z"/></g></g></svg>