<svg xmlns="http://www.w3.org/2000/svg" viewBox="0 0 655.71 235.58"><defs><style>.cls-1,.cls-2,.cls-3,.cls-4,.cls-5,.cls-6,.cls-7{fill:#fff;}.cls-2,.cls-3,.cls-4,.cls-5,.cls-7{stroke:#fff;}.cls-2,.cls-3,.cls-4,.cls-5,.cls-6,.cls-7{stroke-miterlimit:10;}.cls-2{stroke-width:1.18px;}.cls-3{stroke-width:0.28px;}.cls-5,.cls-6{stroke-width:0.76px;}.cls-6{stroke:#f7f9fa;}.cls-7{stroke-width:0.63px;}</style></defs><g id="Layer_2" data-name="Layer 2"><g id="Layer_1-2" data-name="Layer 1"><path class="cls-1" d="M269.25,93.36V73.76c0-13.43,6.36-21.85,21.22-21.85h20c14.86,0,21.22,8.42,21.22,21.85V74a2,2,0,0,1-2.24,2.24h-8c-1.43,0-2.24-.62-2.24-1.52V73.31c0-7.79-2.59-9.49-8.77-9.49h-20c-6.18,0-8.77,1.7-8.77,9.49v20.5c0,7.69,2.77,9.4,8.77,9.4h20c6,0,8.77-1.71,8.77-9.4v-1.7a2,2,0,0,1,2.24-2.24h8c1.43,0,2.24.63,2.24,1.7v1.79c0,13.34-6.36,21.75-21.22,21.75h-20C275.61,115.11,269.25,106.7,269.25,93.36Z"/><path class="cls-1" d="M339.26,95.24V84.41c0-12.44,4.12-19.61,18.53-19.61h12.62c14.41,0,18.53,7.17,18.53,19.61v8a2,2,0,0,1-2.24,2.24H351.08v1.79c0,6.18,1.61,7.61,7,7.61h24.61a2,2,0,0,1,2.24,2.24v6.53a2,2,0,0,1-2.24,2.24H357.79C343.38,115.11,339.26,108,339.26,95.24Zm37.87-9.58V83.33c0-6.08-1.53-7.52-7-7.52H358.06c-5.46,0-7,1.44-7,7.52v2.33Z"/><path class="cls-1" d="M397.18,112.87V49.41a2,2,0,0,1,2.24-2.24h7.34A2,2,0,0,1,409,49.41v63.46a2,2,0,0,1-2.24,2.24h-7.34A2,2,0,0,1,397.18,112.87Z"/><path class="cls-1" d="M419.2,112.87V49.41a2,2,0,0,1,2.24-2.24h7.34A2,2,0,0,1,431,49.41v63.46a2,2,0,0,1-2.24,2.24h-7.34A2,2,0,0,1,419.2,112.87Z"/><path class="cls-1" d="M481.06,64.8h7.34A2,2,0,0,1,490.63,67v45.83a2,2,0,0,1-2.23,2.24h-7.34a2,2,0,0,1-2.24-2.24v-3.58c-2.15,3.76-6.09,5.82-13,5.82H459.3c-14.32,0-18.53-7.07-18.53-19.87V67A2,2,0,0,1,443,64.8h7.34A2,2,0,0,1,452.59,67V96.49c0,6.27,1.61,7.61,7,7.61h12.26c4.84,0,7-1.16,7-7.61V67A2,2,0,0,1,481.06,64.8Z"/><path class="cls-1" d="M500.84,112.87V49.41a2,2,0,0,1,2.24-2.24h7.34a2,2,0,0,1,2.24,2.24v63.46a2,2,0,0,1-2.24,2.24h-7.34A2,2,0,0,1,500.84,112.87Z"/><path class="cls-1" d="M521.79,95.24V84.41c0-12.44,4.12-19.61,18.53-19.61h14.86c14.41,0,18.53,7.17,18.53,19.61V95.24c0,12.8-4.12,19.87-18.53,19.87H540.32C525.91,115.11,521.79,108,521.79,95.24Zm33.12,8.86c5.37,0,7-1.43,7-7.61V83.33c0-6.08-1.52-7.52-7-7.52H540.59c-5.46,0-7,1.44-7,7.52V96.49c0,6.18,1.61,7.61,7,7.61Z"/><path class="cls-1" d="M582.84,57.29V49.41a2,2,0,0,1,2.24-2.24h7.34a2,2,0,0,1,2.24,2.24v7.88a2,2,0,0,1-2.24,2.23h-7.34A2,2,0,0,1,582.84,57.29Zm0,55.58V67a2,2,0,0,1,2.24-2.24h7.34A2,2,0,0,1,594.66,67v45.83a2,2,0,0,1-2.24,2.24h-7.34A2,2,0,0,1,582.84,112.87Z"/><path class="cls-1" d="M646.13,47.17h7.34a2,2,0,0,1,2.24,2.24v63.46a2,2,0,0,1-2.24,2.24h-7.34a2,2,0,0,1-2.24-2.24v-3.49c-2.15,3.76-6.09,5.73-13,5.73h-8.59c-14.41,0-18.53-7.16-18.53-19.6V84.68c0-12.8,4.12-19.88,18.53-19.88h8.59c6.89,0,10.83,2,13,5.73V49.41A2,2,0,0,1,646.13,47.17Zm-2.24,49.41V83.42c0-6.35-2.24-7.61-7-7.61H622.59c-5.38,0-7,1.44-7,7.61V96.58c0,6.09,1.53,7.52,7,7.52h14.32C641.74,104.1,643.89,102.85,643.89,96.58Z"/><polygon class="cls-2" points="251.44 36.25 98.49 119.32 90.08 106.09 236.66 12.98 251.44 36.25"/><polyline class="cls-3" points="98.49 119.32 90.25 106.36 126.94 83.05 136.25 97.71 98.49 119.32 98.49 119.32"/><polygon class="cls-3" points="173.72 75.63 136.25 97.71 126.94 83.05 163.63 59.75 173.72 75.63"/><polygon class="cls-3" points="212.97 56.74 174.3 76.93 163.46 59.86 200.15 36.56 212.97 56.74"/><polyline class="cls-3" points="251.44 36.25 249.52 33.23 212.97 56.74 200.15 36.56 236.83 13.25 249.52 33.23"/><path class="cls-4" d="M233.25,11,229.47,5l2.15-1.37-1.89-3L82,94.52l1.89,3,1.8-1.15,3.78,6-1.8,1.14,1.89,3L237.28,12.59l-1.89-3Zm-129,82L91.8,100.82,88,94.88,100.43,87Zm15.84-10.06-12.42,7.88-3.77-5.94,12.41-7.89Zm15.84-10.06L123.47,80.7l-3.78-6,12.42-7.88Zm15.84-10.06-12.42,7.88-3.78-6L148,56.81ZM167.57,52.7l-12.42,7.88-3.78-5.95,12.42-7.88ZM183.4,42.64,171,50.52l-3.78-6,12.42-7.88Zm15.84-10.07-12.41,7.89-3.78-6,12.42-7.88Zm15.84-10.06L202.67,30.4l-3.78-5.95,12.41-7.88Zm15.84-10.06L218.5,20.34l-3.77-5.95,12.41-7.88Z"/><path class="cls-1" d="M106.36,116.23A56.16,56.16,0,1,0,9.58,172.79m89-58.58a2.32,2.32,0,1,1-.85,3.17A2.32,2.32,0,0,1,98.62,114.21ZM83.89,99.29a2.32,2.32,0,1,1,.51,3.24A2.33,2.33,0,0,1,83.89,99.29Zm-5.52,33.18a9.67,9.67,0,0,1-2.21-2.61,9.55,9.55,0,1,1,17.67-6.49M74.53,94.45a2.31,2.31,0,1,1,1.17,3.06A2.32,2.32,0,0,1,74.53,94.45ZM56.15,88.72A2.32,2.32,0,1,1,53.84,91,2.31,2.31,0,0,1,56.15,88.72Zm0,10.49a9.55,9.55,0,1,1-9.55,9.55A9.54,9.54,0,0,1,56.15,99.21ZM45.2,89.87a2.32,2.32,0,1,1-1.79,2.75A2.32,2.32,0,0,1,45.2,89.87Zm-20,8.91a2.32,2.32,0,1,1-.51,3.24A2.33,2.33,0,0,1,25.18,98.78Zm7.47,18a9.55,9.55,0,1,1-13,3.5A9.55,9.55,0,0,1,32.65,116.81ZM17,106.15a2.32,2.32,0,1,1,.17,3.27A2.31,2.31,0,0,1,17,106.15Zm-11,19A2.32,2.32,0,1,1,7.53,128,2.32,2.32,0,0,1,6,125.12ZM3.75,135.9a2.32,2.32,0,1,1,2.06,2.55A2.32,2.32,0,0,1,3.75,135.9Zm0,11A2.32,2.32,0,1,1,6.3,149,2.31,2.31,0,0,1,3.75,146.91ZM9,159.18a2.32,2.32,0,1,1,1.49-2.92A2.33,2.33,0,0,1,9,159.18Zm4.73,9.42a2.32,2.32,0,1,1,.85-3.17A2.32,2.32,0,0,1,13.69,168.6Zm.85-51.22a2.32,2.32,0,1,1-.85-3.17A2.32,2.32,0,0,1,14.54,117.38Zm7.62,48a9.55,9.55,0,1,1,15.19-8.89m-.74-59a2.32,2.32,0,1,1,1.17-3.06A2.32,2.32,0,0,1,36.61,97.51Zm32.28-4.89a2.32,2.32,0,1,1-1.78-2.75A2.3,2.3,0,0,1,68.89,92.62Zm26.25,16.8a2.32,2.32,0,1,1,.17-3.27A2.31,2.31,0,0,1,95.14,109.42Z"/><rect class="cls-5" x="79.34" y="222.16" width="102.52" height="13.04" rx="4.24"/><path class="cls-6" d="M249.37,33,98.22,118.18,6.75,169.72V179.8a8,8,0,0,0,7.94,7.94H249.38a7.94,7.94,0,0,0,7.93-7.94V28.52ZM34.07,177.89a3.56,3.56,0,0,1-3.57,3.56H22.8a3.56,3.56,0,0,1-3.56-3.56v-4.61a3.56,3.56,0,0,1,3.56-3.56h7.7a3.57,3.57,0,0,1,3.57,3.56Zm26.34,0a3.56,3.56,0,0,1-3.56,3.56H49.14a3.56,3.56,0,0,1-3.56-3.56v-4.61a3.57,3.57,0,0,1,3.56-3.56h7.71a3.56,3.56,0,0,1,3.56,3.56Zm26.35,0a3.56,3.56,0,0,1-3.56,3.56H75.49a3.56,3.56,0,0,1-3.56-3.56v-4.61a3.56,3.56,0,0,1,3.56-3.56H83.2a3.57,3.57,0,0,1,3.56,3.56Zm26.34,0a3.56,3.56,0,0,1-3.56,3.56h-7.7a3.56,3.56,0,0,1-3.57-3.56v-4.61a3.57,3.57,0,0,1,3.57-3.56h7.7a3.56,3.56,0,0,1,3.56,3.56Zm26.35,0a3.56,3.56,0,0,1-3.56,3.56h-7.71a3.56,3.56,0,0,1-3.56-3.56v-4.61a3.56,3.56,0,0,1,3.56-3.56h7.71a3.57,3.57,0,0,1,3.56,3.56Zm26.35,0a3.56,3.56,0,0,1-3.57,3.56h-7.7a3.56,3.56,0,0,1-3.56-3.56v-4.61a3.56,3.56,0,0,1,3.56-3.56h7.7a3.57,3.57,0,0,1,3.57,3.56Zm26.34,0a3.56,3.56,0,0,1-3.56,3.56h-7.71a3.56,3.56,0,0,1-3.56-3.56v-4.61a3.57,3.57,0,0,1,3.56-3.56h7.71a3.56,3.56,0,0,1,3.56,3.56Zm26.35,0a3.56,3.56,0,0,1-3.56,3.56h-7.71a3.56,3.56,0,0,1-3.56-3.56v-4.61a3.56,3.56,0,0,1,3.56-3.56h7.71a3.57,3.57,0,0,1,3.56,3.56Zm26.34,0a3.56,3.56,0,0,1-3.56,3.56h-7.71a3.56,3.56,0,0,1-3.56-3.56v-4.61a3.57,3.57,0,0,1,3.56-3.56h7.71a3.56,3.56,0,0,1,3.56,3.56Zm0-12.82H19.24L244.83,35.68Z"/><path class="cls-7" d="M150,187.74H139.15a7.19,7.19,0,0,1,2,4.91v10.47a7.72,7.72,0,0,1-7.94,7.47h-2.29a7.72,7.72,0,0,1-7.94-7.47V192.65a7.19,7.19,0,0,1,2-4.91H114L98.74,224.49h66.59Z"/><path class="cls-1" d="M460.89,135.75V153.8h-1.6v-9.54c0-1.91,0-3.51.15-5.11l-.1,0c-.47,1.29-1.19,3-1.86,4.74l-2.22,5.68h-1.59l-2.22-5.68c-.67-1.72-1.39-3.45-1.86-4.74l-.1,0c.1,1.6.15,3.2.15,5.11v9.54h-1.59V135.75h1.7l3.22,7.79c.46,1.16,1.11,3,1.44,4h.11c.33-1,1-2.86,1.44-4l3.22-7.79Z"/><path class="cls-1" d="M464.25,149.21v-4.36c0-3.17,1.8-4.9,4.51-4.9s4.51,1.73,4.51,4.9v4.36c0,3.17-1.8,4.9-4.51,4.9S464.25,152.38,464.25,149.21Zm7.47,0v-4.36c0-2.34-1.13-3.4-3-3.4s-3,1.06-3,3.4v4.36c0,2.35,1.14,3.4,3,3.4S471.72,151.56,471.72,149.21Z"/><path class="cls-1" d="M483.64,140.26,479.8,153.8h-1.65l-3.84-13.54h1.6l2.14,7.92c.28,1.11.69,2.89.87,3.63H479c.18-.74.59-2.52.87-3.63l2.14-7.92Z"/><path class="cls-1" d="M485.06,136.53a1.24,1.24,0,1,1,1.24,1.23A1.17,1.17,0,0,1,485.06,136.53Zm.49,3.73h1.52V153.8h-1.52Z"/><path class="cls-1" d="M499.22,149.65a4.32,4.32,0,0,1-4.72,4.41c-2.63,0-4.35-1.73-4.35-4.83v-4.45c0-3.1,1.75-4.83,4.38-4.83s4.51,1.73,4.51,4.83v3h-7.35v1.46c0,2.27,1.09,3.33,2.86,3.33,2,0,2.94-.93,3.15-2.91Zm-7.53-4.87v1.57h5.83v-1.57c0-2.27-1.11-3.33-3-3.33S491.69,142.51,491.69,144.78Z"/><path class="cls-1" d="M501.19,149.78h1.52a2.66,2.66,0,0,0,3,2.83c1.68,0,2.66-.85,2.66-2.29,0-3.3-7-2.09-7-6.73,0-2.19,1.62-3.64,4.07-3.64a3.93,3.93,0,0,1,4.2,4.15h-1.52a2.46,2.46,0,0,0-2.68-2.68c-1.6,0-2.53.83-2.53,2.22,0,3.17,7,2,7,6.73,0,2.24-1.67,3.74-4.2,3.74A4.17,4.17,0,0,1,501.19,149.78Z"/><path class="cls-1" d="M526.49,144.44v9.36h-1.32l-.13-1.27a3.6,3.6,0,0,1-3.12,1.58,4,4,0,0,1-4.27-4.15c0-2.61,1.67-4.05,4.63-4.05H525v-1.44c0-2-.93-3.05-2.69-3.05a2.47,2.47,0,0,0-2.7,2.38h-1.52a3.94,3.94,0,0,1,4.28-3.85C524.91,140,526.49,141.68,526.49,144.44ZM525,150v-2.65h-2.74c-2,0-3,.93-3,2.65s1.21,2.63,3,2.63A2.57,2.57,0,0,0,525,150Z"/><path class="cls-1" d="M538.56,145.14v8.66H537v-8.43c0-2.74-.72-4-2.5-4s-3.12,1.57-3.12,4.2v8.2H529.9V140.26h1.26l.26,1.68a3.83,3.83,0,0,1,3.5-2C537.12,140,538.56,141.42,538.56,145.14Z"/><path class="cls-1" d="M550.32,135.13V153.8h-1.23l-.21-1.27a3.84,3.84,0,0,1-3.2,1.58c-2.45,0-4.2-1.76-4.2-5.18V145c0-3.35,1.6-5.08,4.2-5.08a3.81,3.81,0,0,1,3.15,1.53v-6.35ZM548.83,149V145c0-2.16-1.11-3.66-2.81-3.66-2,0-3,1.08-3,3.66v3.9c0,2.65,1.11,3.76,3,3.76C547.56,152.69,548.83,151.5,548.83,149Z"/><path class="cls-1" d="M558.74,149.78h1.52a2.66,2.66,0,0,0,3,2.83c1.68,0,2.66-.85,2.66-2.29,0-3.3-7-2.09-7-6.73,0-2.19,1.62-3.64,4.07-3.64a3.93,3.93,0,0,1,4.2,4.15h-1.52a2.46,2.46,0,0,0-2.68-2.68c-1.6,0-2.52.83-2.52,2.22,0,3.17,7,2,7,6.73,0,2.24-1.68,3.74-4.21,3.74A4.17,4.17,0,0,1,558.74,149.78Z"/><path class="cls-1" d="M575.45,152.48v1.45h-.77c-2.48,0-3.84-1.55-3.84-4.15v-8.1h-2.07v-1.42h2.07v-3.12h1.52v3.12h2.78v1.42h-2.78v8.1c0,1.78.72,2.7,2.32,2.7Z"/><path class="cls-1" d="M584.09,140.11v1.65a4.8,4.8,0,0,0-1.7-.28c-1.93,0-3.2,1.54-3.2,4.12v8.2h-1.52V140.26h1.26l.26,1.71v0a3.88,3.88,0,0,1,3.54-2A5.71,5.71,0,0,1,584.09,140.11Z"/><path class="cls-1" d="M594.74,149.65a4.32,4.32,0,0,1-4.72,4.41c-2.62,0-4.35-1.73-4.35-4.83v-4.45c0-3.1,1.75-4.83,4.38-4.83s4.51,1.73,4.51,4.83v3h-7.34v1.46c0,2.27,1.08,3.33,2.86,3.33,2,0,2.94-.93,3.14-2.91Zm-7.52-4.87v1.57H593v-1.57c0-2.27-1.11-3.33-3-3.33S587.22,142.51,587.22,144.78Z"/><path class="cls-1" d="M605.73,144.44v9.36h-1.31l-.13-1.27a3.62,3.62,0,0,1-3.12,1.58,4,4,0,0,1-4.28-4.15c0-2.61,1.68-4.05,4.64-4.05h2.68v-1.44c0-2-.93-3.05-2.68-3.05a2.48,2.48,0,0,0-2.71,2.38H597.3a4,4,0,0,1,4.28-3.85C604.16,140,605.73,141.68,605.73,144.44ZM604.21,150v-2.65h-2.73c-2,0-3,.93-3,2.65s1.21,2.63,3,2.63A2.57,2.57,0,0,0,604.21,150Z"/><path class="cls-1" d="M624.53,145.19v8.61H623v-8.48c0-2.84-.85-3.92-2.32-3.92-1.83,0-3.09,1.57-3.09,4.2v8.2h-1.52v-8.48c0-2.84-.9-3.92-2.4-3.92-1.8,0-3,1.57-3,4.2v8.2h-1.52V140.26h1.27l.23,1.76A3.62,3.62,0,0,1,614,140a3.26,3.26,0,0,1,3.24,2.61A3.84,3.84,0,0,1,621,140C623.12,140,624.53,141.6,624.53,145.19Z"/><path class="cls-1" d="M627.3,136.53a1.24,1.24,0,1,1,1.24,1.23A1.17,1.17,0,0,1,627.3,136.53Zm.49,3.73h1.52V153.8h-1.52Z"/><path class="cls-1" d="M641.38,145.14v8.66h-1.52v-8.43c0-2.74-.72-4-2.5-4s-3.12,1.57-3.12,4.2v8.2h-1.52V140.26H634l.26,1.68a3.85,3.85,0,0,1,3.51-2C639.94,140,641.38,141.42,641.38,145.14Z"/><path class="cls-1" d="M653.17,140.26v14.47c0,2.42-1.7,4-4.3,4a4,4,0,0,1-4.31-3.91H646a2.55,2.55,0,0,0,2.84,2.5,2.5,2.5,0,0,0,2.78-2.63V152.1a3.71,3.71,0,0,1-3,1.29c-2.6,0-4.36-1.73-4.36-4.82v-3.49c0-3.37,1.76-5.13,4.31-5.13a3.58,3.58,0,0,1,3.09,1.68l.21-1.37Zm-1.52,8.31v-3.74c0-2.35-1.24-3.43-2.73-3.43-1.91,0-3.07,1.08-3.07,3.68v3.49c0,2.29,1.16,3.37,3.07,3.37C650.62,151.94,651.65,150.86,651.65,148.57Z"/></g></g></svg>