<svg xmlns="http://www.w3.org/2000/svg" viewBox="0 0 257.31 234.51"><defs><style>.cls-1{fill:#1a00b9;}</style></defs><g id="Layer_2" data-name="Layer 2"><g id="Layer_1-2" data-name="Layer 1"><polygon class="cls-1" points="251.44 35.56 98.49 118.63 90.08 105.4 236.66 12.29 251.44 35.56"/><polyline class="cls-1" points="98.49 118.63 90.25 105.67 126.94 82.36 136.25 97.02 98.49 118.63 98.49 118.63"/><polygon class="cls-1" points="173.72 74.94 136.25 97.02 126.94 82.36 163.63 59.06 173.72 74.94"/><polygon class="cls-1" points="212.97 56.05 174.3 76.24 163.46 59.17 200.15 35.87 212.97 56.05"/><polyline class="cls-1" points="251.44 35.56 249.52 32.54 212.97 56.05 200.15 35.87 236.83 12.56 249.52 32.54"/><path class="cls-1" d="M233.25,10.29l-3.78-5.95L231.62,3l-1.89-3L82,93.83l1.89,3,1.8-1.15,3.78,6-1.8,1.14,1.89,3L237.28,11.9l-1.89-3Zm-129,82L91.8,100.13,88,94.19l12.41-7.89Zm15.84-10.06-12.42,7.88-3.77-5.94,12.41-7.89Zm15.84-10.06L123.47,80l-3.78-6,12.42-7.88Zm15.84-10.06L139.31,70l-3.78-6L148,56.12ZM167.57,52l-12.42,7.88-3.78-6,12.42-7.88ZM183.4,41.94,171,49.83l-3.78-5.95L179.63,36Zm15.84-10.06-12.41,7.89-3.78-6,12.42-7.88Zm15.84-10.06-12.41,7.89-3.78-5.95,12.41-7.88Zm15.84-10.06L218.5,19.65l-3.77-5.95,12.41-7.88Z"/><path class="cls-1" d="M106.36,115.54A56.16,56.16,0,1,0,9.58,172.1m89-58.58a2.32,2.32,0,1,1-.85,3.17A2.32,2.32,0,0,1,98.62,113.52ZM83.89,98.6a2.32,2.32,0,1,1,.51,3.24A2.33,2.33,0,0,1,83.89,98.6Zm-5.52,33.18a9.67,9.67,0,0,1-2.21-2.61,9.55,9.55,0,1,1,17.67-6.49M74.53,93.76a2.31,2.31,0,1,1,1.17,3.06A2.32,2.32,0,0,1,74.53,93.76ZM56.15,88a2.32,2.32,0,1,1-2.31,2.31A2.31,2.31,0,0,1,56.15,88Zm0,10.49a9.55,9.55,0,1,1-9.55,9.55A9.54,9.54,0,0,1,56.15,98.52ZM45.2,89.18a2.32,2.32,0,1,1-1.79,2.75A2.32,2.32,0,0,1,45.2,89.18Zm-20,8.91a2.32,2.32,0,1,1-.51,3.24A2.33,2.33,0,0,1,25.18,98.09Zm7.47,18a9.55,9.55,0,1,1-13,3.5A9.55,9.55,0,0,1,32.65,116.12ZM17,105.46a2.32,2.32,0,1,1,.17,3.27A2.31,2.31,0,0,1,17,105.46Zm-11,19a2.32,2.32,0,1,1,1.49,2.92A2.32,2.32,0,0,1,6,124.43ZM3.75,135.21a2.32,2.32,0,1,1,2.06,2.55A2.32,2.32,0,0,1,3.75,135.21Zm0,11a2.32,2.32,0,1,1,2.55,2.07A2.31,2.31,0,0,1,3.75,146.22ZM9,158.49a2.32,2.32,0,1,1,1.49-2.92A2.33,2.33,0,0,1,9,158.49Zm4.73,9.42a2.32,2.32,0,1,1,.85-3.17A2.32,2.32,0,0,1,13.69,167.91Zm.85-51.22a2.32,2.32,0,1,1-.85-3.17A2.32,2.32,0,0,1,14.54,116.69Zm7.62,48a9.55,9.55,0,1,1,15.19-8.89m-.74-59a2.32,2.32,0,1,1,1.17-3.06A2.32,2.32,0,0,1,36.61,96.82Zm32.28-4.89a2.32,2.32,0,1,1-1.78-2.75A2.3,2.3,0,0,1,68.89,91.93Zm26.25,16.8a2.32,2.32,0,1,1,.17-3.27A2.31,2.31,0,0,1,95.14,108.73Z"/><rect class="cls-1" x="79.34" y="221.47" width="102.52" height="13.04" rx="4.24"/><path class="cls-1" d="M249.37,32.3,98.22,117.49,6.75,169v10.08a8,8,0,0,0,7.94,7.94H249.38a7.94,7.94,0,0,0,7.93-7.94V27.83ZM34.07,177.2a3.56,3.56,0,0,1-3.57,3.56H22.8a3.56,3.56,0,0,1-3.56-3.56v-4.61A3.56,3.56,0,0,1,22.8,169h7.7a3.57,3.57,0,0,1,3.57,3.56Zm26.34,0a3.56,3.56,0,0,1-3.56,3.56H49.14a3.56,3.56,0,0,1-3.56-3.56v-4.61A3.57,3.57,0,0,1,49.14,169h7.71a3.56,3.56,0,0,1,3.56,3.56Zm26.35,0a3.56,3.56,0,0,1-3.56,3.56H75.49a3.56,3.56,0,0,1-3.56-3.56v-4.61A3.56,3.56,0,0,1,75.49,169H83.2a3.57,3.57,0,0,1,3.56,3.56Zm26.34,0a3.56,3.56,0,0,1-3.56,3.56h-7.7a3.56,3.56,0,0,1-3.57-3.56v-4.61a3.57,3.57,0,0,1,3.57-3.56h7.7a3.56,3.56,0,0,1,3.56,3.56Zm26.35,0a3.56,3.56,0,0,1-3.56,3.56h-7.71a3.56,3.56,0,0,1-3.56-3.56v-4.61a3.56,3.56,0,0,1,3.56-3.56h7.71a3.57,3.57,0,0,1,3.56,3.56Zm26.35,0a3.56,3.56,0,0,1-3.57,3.56h-7.7A3.56,3.56,0,0,1,151,177.2v-4.61a3.56,3.56,0,0,1,3.56-3.56h7.7a3.57,3.57,0,0,1,3.57,3.56Zm26.34,0a3.56,3.56,0,0,1-3.56,3.56h-7.71a3.56,3.56,0,0,1-3.56-3.56v-4.61a3.57,3.57,0,0,1,3.56-3.56h7.71a3.56,3.56,0,0,1,3.56,3.56Zm26.35,0a3.56,3.56,0,0,1-3.56,3.56h-7.71a3.56,3.56,0,0,1-3.56-3.56v-4.61a3.56,3.56,0,0,1,3.56-3.56h7.71a3.57,3.57,0,0,1,3.56,3.56Zm26.34,0a3.56,3.56,0,0,1-3.56,3.56h-7.71A3.56,3.56,0,0,1,230,177.2v-4.61a3.57,3.57,0,0,1,3.56-3.56h7.71a3.56,3.56,0,0,1,3.56,3.56Zm0-12.82H19.24L244.83,35Z"/><path class="cls-1" d="M150,187.05H139.15a7.19,7.19,0,0,1,2,4.91v10.47a7.72,7.72,0,0,1-7.94,7.47h-2.29a7.72,7.72,0,0,1-7.94-7.47V192a7.19,7.19,0,0,1,2-4.91H114L98.74,223.8h66.59Z"/></g></g></svg>