<svg width="140" height="50" viewBox="0 0 140 50" fill="none" xmlns="http://www.w3.org/2000/svg">
<g clip-path="url(#clip0)">
<path d="M57.5234 19.7274V15.5552C57.5234 12.6964 58.8773 10.9062 62.0406 10.9062H66.2981C69.4614 10.9062 70.8153 12.6964 70.8153 15.5552V15.6127C70.8233 15.6771 70.8164 15.7426 70.7952 15.8039C70.7741 15.8653 70.7391 15.921 70.6931 15.9669C70.6471 16.0127 70.5912 16.0473 70.5298 16.0682C70.4683 16.0891 70.4028 16.0957 70.3384 16.0874H68.6354C68.331 16.0874 68.1586 15.9554 68.1586 15.7638V15.4594C68.1586 13.8012 67.6073 13.4393 66.2917 13.4393H62.0342C60.7187 13.4393 60.1673 13.8012 60.1673 15.4594V19.8232C60.1673 21.4623 60.757 21.8241 62.0342 21.8241H66.2917C67.5689 21.8241 68.1586 21.4623 68.1586 19.8232V19.4592C68.1502 19.3946 68.1568 19.3289 68.1778 19.2673C68.1988 19.2056 68.2337 19.1496 68.2798 19.1035C68.3258 19.0575 68.3819 19.0226 68.4435 19.0016C68.5052 18.9806 68.5708 18.974 68.6354 18.9824H70.3384C70.6428 18.9824 70.8153 19.1165 70.8153 19.3442V19.7253C70.8153 22.5649 69.4614 24.3551 66.2981 24.3551H62.0406C58.8773 24.3551 57.5234 22.567 57.5234 19.7274Z" fill="#0A041C"/>
<path d="M72.4277 20.1259V17.8206C72.4277 15.1726 73.3048 13.6484 76.3723 13.6484H79.0587C82.1262 13.6484 83.0033 15.1726 83.0033 17.8206V19.5363C83.0113 19.6007 83.0044 19.6661 82.9833 19.7275C82.9621 19.7889 82.9272 19.8446 82.8812 19.8904C82.8351 19.9363 82.7793 19.9709 82.7178 19.9918C82.6563 20.0127 82.5909 20.0193 82.5264 20.011H74.9439V20.392C74.9439 21.7075 75.2866 22.0119 76.434 22.0119H81.6728C81.7374 22.0036 81.8031 22.0102 81.8647 22.0312C81.9264 22.0522 81.9824 22.087 82.0285 22.1331C82.0745 22.1792 82.1094 22.2352 82.1304 22.2968C82.1514 22.3585 82.158 22.4241 82.1497 22.4887V23.8788C82.158 23.9434 82.1514 24.009 82.1304 24.0707C82.1094 24.1323 82.0745 24.1883 82.0285 24.2344C81.9824 24.2805 81.9264 24.3153 81.8647 24.3363C81.8031 24.3573 81.7374 24.3639 81.6728 24.3556H76.3787C73.3048 24.3534 72.4277 22.8506 72.4277 20.1259ZM80.4871 18.0867V17.5907C80.4871 16.2965 80.1636 15.9921 78.997 15.9921H76.4298C75.2675 15.9921 74.9396 16.2965 74.9396 17.5907V18.0867H80.4871Z" fill="#0A041C"/>
<path d="M84.7574 23.8794V10.371C84.7491 10.3064 84.7556 10.2407 84.7767 10.179C84.7977 10.1174 84.8325 10.0614 84.8786 10.0153C84.9247 9.96926 84.9807 9.93438 85.0423 9.91337C85.104 9.89237 85.1697 9.88579 85.2343 9.89414H86.7968C86.8614 9.88579 86.927 9.89237 86.9887 9.91337C87.0503 9.93438 87.1064 9.96926 87.1524 10.0153C87.1985 10.0614 87.2334 10.1174 87.2544 10.179C87.2754 10.2407 87.2819 10.3064 87.2736 10.371V23.8794C87.2819 23.944 87.2754 24.0097 87.2544 24.0713C87.2334 24.133 87.1985 24.189 87.1524 24.2351C87.1064 24.2811 87.0503 24.316 86.9887 24.337C86.927 24.358 86.8614 24.3646 86.7968 24.3562H85.2343C85.1697 24.3646 85.104 24.358 85.0423 24.337C84.9807 24.316 84.9247 24.2811 84.8786 24.2351C84.8325 24.189 84.7977 24.133 84.7767 24.0713C84.7556 24.0097 84.7491 23.944 84.7574 23.8794Z" fill="#0A041C"/>
<path d="M89.4449 23.8794V10.371C89.4366 10.3064 89.4431 10.2407 89.4642 10.179C89.4852 10.1174 89.52 10.0614 89.5661 10.0153C89.6122 9.96926 89.6682 9.93438 89.7298 9.91337C89.7915 9.89237 89.8572 9.88579 89.9218 9.89414H91.4928C91.5574 9.88579 91.623 9.89237 91.6847 9.91337C91.7463 9.93438 91.8024 9.96926 91.8484 10.0153C91.8945 10.0614 91.9294 10.1174 91.9504 10.179C91.9714 10.2407 91.978 10.3064 91.9696 10.371V23.8794C91.9776 23.9438 91.9708 24.0093 91.9496 24.0706C91.9284 24.132 91.8935 24.1878 91.8475 24.2336C91.8015 24.2794 91.7456 24.314 91.6841 24.3349C91.6226 24.3558 91.5572 24.3624 91.4928 24.3541H89.9303C89.8652 24.3638 89.7988 24.3584 89.7362 24.3381C89.6736 24.3179 89.6166 24.2834 89.5696 24.2374C89.5226 24.1914 89.4868 24.1352 89.4652 24.0731C89.4436 24.0109 89.4366 23.9447 89.4449 23.8794Z" fill="#0A041C"/>
<path d="M102.609 13.648H104.174C104.238 13.6401 104.303 13.6469 104.365 13.6679C104.426 13.689 104.481 13.7237 104.527 13.7695C104.573 13.8153 104.608 13.8709 104.629 13.9321C104.65 13.9933 104.657 14.0585 104.649 14.1227V23.8783C104.657 23.9427 104.65 24.0082 104.63 24.0696C104.609 24.1311 104.574 24.187 104.528 24.233C104.482 24.279 104.427 24.314 104.365 24.3351C104.304 24.3563 104.238 24.3632 104.174 24.3552H102.609C102.545 24.3632 102.48 24.3563 102.418 24.3351C102.357 24.314 102.301 24.279 102.255 24.233C102.209 24.187 102.175 24.1311 102.154 24.0696C102.133 24.0082 102.126 23.9427 102.135 23.8783V23.1163C101.677 23.9166 100.838 24.3552 99.3673 24.3552H97.9751C94.9268 24.3552 94.0306 22.8502 94.0306 20.1255V14.1227C94.0226 14.0583 94.0294 13.9929 94.0506 13.9315C94.0718 13.8701 94.1067 13.8144 94.1527 13.7686C94.1987 13.7227 94.2546 13.6881 94.3161 13.6672C94.3776 13.6463 94.443 13.6397 94.5074 13.648H96.0699C96.1343 13.6397 96.1998 13.6463 96.2612 13.6672C96.3227 13.6881 96.3786 13.7227 96.4246 13.7686C96.4706 13.8144 96.5056 13.8701 96.5267 13.9315C96.5479 13.9929 96.5548 14.0583 96.5468 14.1227V20.3916C96.5468 21.7263 96.8895 22.0115 98.0369 22.0115H100.645C101.675 22.0115 102.135 21.7646 102.135 20.3916V14.1227C102.127 14.0585 102.134 13.9933 102.155 13.9321C102.176 13.8709 102.21 13.8153 102.256 13.7695C102.302 13.7237 102.358 13.689 102.419 13.6679C102.48 13.6469 102.545 13.6401 102.609 13.648Z" fill="#0A041C"/>
<path d="M106.82 23.8794V10.371C106.812 10.3064 106.818 10.2407 106.839 10.179C106.86 10.1174 106.895 10.0614 106.941 10.0153C106.987 9.96926 107.043 9.93438 107.105 9.91337C107.167 9.89237 107.232 9.88579 107.297 9.89414H108.859C108.924 9.88579 108.99 9.89237 109.051 9.91337C109.113 9.93438 109.169 9.96926 109.215 10.0153C109.261 10.0614 109.296 10.1174 109.317 10.179C109.338 10.2407 109.344 10.3064 109.336 10.371V23.8794C109.344 23.9434 109.337 24.0084 109.316 24.0695C109.295 24.1305 109.261 24.1859 109.215 24.2317C109.17 24.2774 109.114 24.3122 109.053 24.3334C108.993 24.3546 108.928 24.3617 108.864 24.3541H107.301C107.236 24.3631 107.17 24.3571 107.108 24.3365C107.046 24.3159 106.99 24.2814 106.943 24.2355C106.897 24.1896 106.861 24.1336 106.84 24.0718C106.819 24.0101 106.812 23.9442 106.82 23.8794Z" fill="#0A041C"/>
<path d="M111.291 20.1259V17.8206C111.291 15.1726 112.166 13.6484 115.236 13.6484H118.399C121.466 13.6484 122.343 15.1726 122.343 17.8206V20.1259C122.343 22.8506 121.466 24.3556 118.399 24.3556H115.229C112.16 24.3534 111.291 22.8506 111.291 20.1259ZM118.335 22.0119C119.478 22.0119 119.825 21.7075 119.825 20.392V17.5907C119.825 16.2965 119.502 15.9921 118.335 15.9921H115.285C114.124 15.9921 113.794 16.2965 113.794 17.5907V20.392C113.794 21.7075 114.137 22.0119 115.285 22.0119H118.335Z" fill="#0A041C"/>
<path d="M124.277 12.0483V10.371C124.269 10.3064 124.275 10.2407 124.296 10.179C124.317 10.1174 124.352 10.0614 124.398 10.0153C124.444 9.96926 124.5 9.93438 124.562 9.91337C124.624 9.89237 124.689 9.88579 124.754 9.89414H126.316C126.381 9.88579 126.447 9.89237 126.508 9.91337C126.57 9.93438 126.626 9.96926 126.672 10.0153C126.718 10.0614 126.753 10.1174 126.774 10.179C126.795 10.2407 126.801 10.3064 126.793 10.371V12.0483C126.801 12.1128 126.794 12.1782 126.773 12.2396C126.752 12.301 126.717 12.3567 126.671 12.4025C126.625 12.4483 126.569 12.483 126.508 12.5039C126.446 12.5248 126.381 12.5313 126.316 12.523H124.754C124.689 12.5313 124.624 12.5248 124.562 12.5039C124.501 12.483 124.445 12.4483 124.399 12.4025C124.353 12.3567 124.318 12.301 124.297 12.2396C124.276 12.1782 124.269 12.1128 124.277 12.0483ZM124.277 23.8794V14.1238C124.269 14.0593 124.276 13.9939 124.297 13.9325C124.318 13.8712 124.353 13.8154 124.399 13.7696C124.445 13.7238 124.501 13.6891 124.562 13.6683C124.624 13.6474 124.689 13.6408 124.754 13.6491H126.316C126.381 13.6408 126.446 13.6474 126.508 13.6683C126.569 13.6891 126.625 13.7238 126.671 13.7696C126.717 13.8154 126.752 13.8712 126.773 13.9325C126.794 13.9939 126.801 14.0593 126.793 14.1238V23.8794C126.801 23.9434 126.794 24.0084 126.773 24.0695C126.752 24.1305 126.718 24.1859 126.672 24.2317C126.627 24.2774 126.571 24.3122 126.511 24.3334C126.45 24.3546 126.385 24.3617 126.321 24.3541H124.758C124.693 24.3631 124.627 24.3571 124.565 24.3365C124.503 24.3159 124.447 24.2814 124.4 24.2355C124.354 24.1896 124.319 24.1336 124.297 24.0718C124.276 24.0101 124.269 23.9442 124.277 23.8794Z" fill="#0A041C"/>
<path d="M137.753 9.89414H139.316C139.38 9.88579 139.446 9.89237 139.508 9.91337C139.569 9.93438 139.625 9.96926 139.671 10.0153C139.718 10.0614 139.752 10.1174 139.773 10.179C139.794 10.2407 139.801 10.3064 139.793 10.371V23.8794C139.801 23.944 139.794 24.0097 139.773 24.0713C139.752 24.133 139.718 24.189 139.671 24.2351C139.625 24.2811 139.569 24.316 139.508 24.337C139.446 24.358 139.38 24.3646 139.316 24.3562H137.753C137.689 24.3646 137.623 24.358 137.561 24.337C137.5 24.316 137.444 24.2811 137.398 24.2351C137.352 24.189 137.317 24.133 137.296 24.0713C137.275 24.0097 137.268 23.944 137.276 23.8794V23.1365C136.819 23.9369 135.98 24.3562 134.509 24.3562H132.685C129.615 24.3562 128.74 22.8321 128.74 20.1841V17.8787C128.74 15.1541 129.615 13.6491 132.685 13.6491H134.513C135.98 13.6491 136.819 14.0748 137.281 14.8667V10.371C137.273 10.3068 137.279 10.2415 137.3 10.1802C137.321 10.1189 137.355 10.0632 137.401 10.0172C137.446 9.97124 137.502 9.93626 137.563 9.91493C137.624 9.89361 137.689 9.8865 137.753 9.89414ZM137.276 20.4118V17.6105C137.276 16.2588 136.8 15.9927 135.786 15.9927H132.74C131.597 15.9927 131.25 16.2971 131.25 17.6105V20.4118C131.25 21.7082 131.574 22.0126 132.74 22.0126H135.791C136.819 22.0126 137.276 21.7465 137.276 20.4118V20.4118Z" fill="#0A041C"/>
<path d="M50.5888 2.62025L19.3848 22.4375L22.5301 27.3897L53.7342 7.57247L50.5888 2.62025Z" fill="white" stroke="black" stroke-width="0.409722" stroke-miterlimit="10"/>
<path d="M27.2791 17.1606L19.5078 22.1562L22.5828 26.9393L30.354 21.9437L27.2791 17.1606Z" fill="white" stroke="black" stroke-width="0.097086" stroke-miterlimit="10"/>
<path d="M35.04 12.5754L27.2305 17.5352L30.2833 22.3418L38.0929 17.3821L35.04 12.5754Z" fill="white" stroke="black" stroke-width="0.0972222" stroke-miterlimit="10"/>
<path d="M42.8135 7.63792L35.0039 12.5977L38.0568 17.4043L45.8663 12.4446L42.8135 7.63792Z" fill="white" stroke="black" stroke-width="0.0972222" stroke-miterlimit="10"/>
<path d="M50.624 2.67698L42.8145 7.63672L45.8673 12.4434L53.6769 7.48365L50.624 2.67698Z" fill="white" stroke="black" stroke-width="0.0972222" stroke-miterlimit="10"/>
<path d="M54.6384 9.7124L53.8337 8.44585L54.2914 8.15422L53.889 7.51562L22.4434 27.4952L22.8457 28.1338L23.2289 27.8911L24.0335 29.1683L23.6504 29.411L24.0527 30.0496L54.1445 10.6277L54.6384 9.73369V9.7124ZM27.1777 27.1674L24.5338 28.8448L23.7291 27.5782L26.373 25.9008L27.1777 27.1674ZM30.5496 25.026L27.8993 26.6948L27.0946 25.4283L29.7385 23.7509L30.5496 25.026ZM33.9194 22.8824L31.2776 24.5619L30.4666 23.289L33.1105 21.6116L33.9194 22.8824ZM37.2849 20.7346L34.6431 22.4141L33.8385 21.1475L36.4802 19.4702L37.2849 20.7346ZM40.6568 18.5932L38.0129 20.2727L37.2104 19.004L39.8522 17.3287L40.6568 18.5932ZM44.0224 16.4496L41.3785 18.1291L40.5759 16.8626L43.2177 15.1852L44.0224 16.4496ZM47.3943 14.3082L44.7504 15.9877L43.9457 14.7211L46.5896 13.0437L47.3943 14.3082ZM50.7662 12.1667L48.1223 13.8462L47.3176 12.5797L49.9615 10.9002L50.7662 12.1667ZM54.1381 10.0253L51.4942 11.7048L50.6896 10.4276L53.3334 8.74812L54.1381 10.0253Z" fill="black"/>
<path d="M49.8591 2.19074L49.0565 0.924185L49.5142 0.634691L49.1119 -0.00390625L17.6641 19.9735L18.0664 20.6121L18.4496 20.3673L19.2542 21.6339L18.8711 21.8765L19.2734 22.5151L50.7191 2.54196L50.3167 1.90337L49.8591 2.19074ZM22.3984 19.6457L19.7545 21.3146L18.9519 20.0502L21.5937 18.3707L22.3984 19.6457ZM25.7703 17.5043L23.1264 19.1817L22.309 17.9087L24.9507 16.2292L25.7703 17.5043ZM29.1422 15.3629L26.4983 17.0402L25.6937 15.7758L28.3375 14.0963L29.1422 15.3629ZM32.5141 13.2214L29.8702 14.8988L29.0656 13.6344L31.7095 11.9549L32.5141 13.2214ZM35.886 11.08L33.2422 12.7574L32.4375 11.4908L35.0814 9.80494L35.886 11.08ZM39.2558 8.93858L36.6141 10.616L35.8094 9.34941L38.4533 7.67203L39.2558 8.93858ZM42.6277 6.79715L39.9775 8.46602L39.1728 7.18882L41.8146 5.51144L42.6277 6.79715ZM45.9997 4.65572L43.3558 6.3331L42.5532 5.05591L45.195 3.37853L45.9997 4.65572ZM49.3716 2.51216L46.7277 4.19167L45.9252 2.91448L48.5669 1.2371L49.3716 2.51216Z" fill="black"/>
<path d="M22.8497 24.5941C22.1153 23.1357 21.0901 21.8432 19.837 20.7963C18.5839 19.7494 17.1297 18.9703 15.5639 18.507C13.9982 18.0437 12.3541 17.906 10.7331 18.1025C9.11213 18.299 7.54857 18.8255 6.13886 19.6494C4.72916 20.4734 3.50319 21.5774 2.53658 22.8934C1.56997 24.2093 0.88319 25.7094 0.518605 27.301C0.154021 28.8925 0.119357 30.5419 0.41675 32.1474C0.714144 33.7529 1.33729 35.2805 2.24776 36.6359L22.8497 24.5941ZM21.1935 24.1641C21.2781 24.1153 21.3753 24.0927 21.4727 24.0991C21.5702 24.1056 21.6636 24.1407 21.741 24.2002C21.8185 24.2597 21.8766 24.3408 21.9079 24.4333C21.9393 24.5258 21.9425 24.6255 21.9173 24.7198C21.892 24.8141 21.8393 24.8989 21.7658 24.9632C21.6924 25.0276 21.6015 25.0688 21.5047 25.0815C21.4079 25.0943 21.3094 25.078 21.2218 25.0348C21.1342 24.9917 21.0614 24.9235 21.0126 24.8389C20.9802 24.7823 20.9594 24.7198 20.9514 24.655C20.9434 24.5903 20.9483 24.5246 20.966 24.4618C20.9836 24.399 21.0136 24.3404 21.0541 24.2892C21.0946 24.2381 21.1449 24.1956 21.202 24.1641H21.1935ZM18.0579 20.9882C18.1154 20.9092 18.195 20.849 18.2866 20.8152C18.3783 20.7815 18.4779 20.7757 18.5729 20.7986C18.6679 20.8214 18.7539 20.872 18.8202 20.9438C18.8864 21.0156 18.9299 21.1054 18.9451 21.2019C18.9603 21.2984 18.9465 21.3972 18.9055 21.4859C18.8645 21.5746 18.7982 21.6491 18.7148 21.7C18.6315 21.751 18.5349 21.7761 18.4373 21.7721C18.3397 21.7682 18.2454 21.7354 18.1664 21.6778C18.062 21.5995 17.9928 21.4829 17.974 21.3537C17.9553 21.2244 17.9885 21.093 18.0664 20.9882H18.0579ZM19.9333 25.4583C20.1353 25.8066 20.2293 26.207 20.2035 26.6088C20.1776 27.0106 20.033 27.3956 19.788 27.7151C19.5431 28.0346 19.2087 28.2742 18.8274 28.4035C18.4461 28.5327 18.035 28.5459 17.6462 28.4412C17.2574 28.3365 16.9085 28.1188 16.6436 27.8156C16.3787 27.5123 16.2099 27.1373 16.1584 26.738C16.107 26.3387 16.1753 25.9331 16.3547 25.5726C16.534 25.2122 16.8164 24.9131 17.1659 24.7133C17.3974 24.5802 17.6528 24.494 17.9176 24.4597C18.1824 24.4253 18.4513 24.4434 18.7091 24.513C18.9669 24.5826 19.2084 24.7023 19.4199 24.8652C19.6314 25.0281 19.8088 25.2311 19.9418 25.4626L19.9333 25.4583ZM16.0718 19.9579C16.1113 19.8686 16.1765 19.793 16.259 19.7407C16.3416 19.6884 16.4377 19.6618 16.5354 19.6642C16.6331 19.6666 16.7278 19.6979 16.8077 19.7541C16.8876 19.8104 16.949 19.889 16.9841 19.9802C17.0193 20.0713 17.0266 20.1709 17.0052 20.2662C16.9837 20.3615 16.9345 20.4483 16.8638 20.5156C16.793 20.583 16.7038 20.6278 16.6076 20.6445C16.5113 20.6611 16.4123 20.6489 16.323 20.6093C16.2033 20.5561 16.1096 20.4577 16.0625 20.3356C16.0154 20.2134 16.0188 20.0776 16.0718 19.9579V19.9579ZM12.1613 18.7382C12.259 18.7386 12.3543 18.768 12.4353 18.8226C12.5163 18.8772 12.5792 18.9546 12.6162 19.045C12.6532 19.1354 12.6626 19.2347 12.6431 19.3304C12.6236 19.4262 12.5762 19.5139 12.5069 19.5827C12.4375 19.6515 12.3493 19.6981 12.2534 19.7168C12.1575 19.7354 12.0583 19.7252 11.9682 19.6874C11.8781 19.6497 11.8013 19.586 11.7473 19.5046C11.6934 19.4232 11.6649 19.3276 11.6653 19.2299C11.6653 19.1649 11.6781 19.1007 11.7031 19.0407C11.7281 18.9808 11.7647 18.9264 11.8108 18.8807C11.8569 18.835 11.9116 18.7988 11.9718 18.7744C12.0319 18.7499 12.0964 18.7376 12.1613 18.7382ZM12.1613 20.9711C12.5634 20.9711 12.9564 21.0903 13.2907 21.3137C13.625 21.5371 13.8856 21.8546 14.0395 22.226C14.1933 22.5975 14.2336 23.0062 14.1552 23.4006C14.0767 23.7949 13.8831 24.1571 13.5988 24.4414C13.3145 24.7257 12.9522 24.9194 12.5579 24.9978C12.1635 25.0762 11.7548 25.036 11.3833 24.8821C11.0118 24.7283 10.6943 24.4677 10.471 24.1334C10.2476 23.7991 10.1283 23.4061 10.1283 23.004C10.1281 22.737 10.1805 22.4725 10.2825 22.2257C10.3846 21.9789 10.5343 21.7547 10.7232 21.5659C10.912 21.3771 11.1362 21.2274 11.383 21.1253C11.6298 21.0232 11.8942 20.9708 12.1613 20.9711V20.9711ZM9.81967 18.983C9.91524 18.9628 10.0146 18.9714 10.1053 19.0076C10.196 19.0439 10.2739 19.1063 10.3291 19.1869C10.3844 19.2674 10.4145 19.3625 10.4156 19.4602C10.4168 19.5579 10.389 19.6537 10.3357 19.7355C10.2824 19.8174 10.2061 19.8816 10.1163 19.9201C10.0265 19.9585 9.92733 19.9695 9.83131 19.9516C9.73529 19.9337 9.64673 19.8878 9.57684 19.8195C9.50694 19.7513 9.45885 19.6639 9.43863 19.5683C9.42533 19.5041 9.42495 19.4379 9.43751 19.3736C9.45007 19.3092 9.47531 19.248 9.51177 19.1936C9.54823 19.1391 9.59517 19.0924 9.64987 19.0562C9.70456 19.0201 9.7659 18.9952 9.83032 18.983H9.81967ZM5.5622 20.8796C5.64116 20.8221 5.73541 20.7893 5.83302 20.7853C5.93063 20.7814 6.02722 20.8064 6.11058 20.8574C6.19393 20.9083 6.2603 20.9829 6.30129 21.0715C6.34228 21.1602 6.35605 21.259 6.34086 21.3555C6.32567 21.452 6.2822 21.5419 6.21595 21.6137C6.1497 21.6855 6.06365 21.736 5.96867 21.7589C5.8737 21.7817 5.77407 21.7759 5.68239 21.7422C5.59072 21.7084 5.51111 21.6483 5.45364 21.5693C5.37783 21.4624 5.34737 21.3299 5.36891 21.2007C5.39044 21.0715 5.46223 20.9561 5.56859 20.8796H5.5622ZM7.15237 24.7112C7.50193 24.911 7.78429 25.21 7.96365 25.5705C8.14302 25.9309 8.21131 26.3365 8.15987 26.7358C8.10842 27.1352 7.93956 27.5102 7.67469 27.8134C7.40983 28.1166 7.06088 28.3344 6.6721 28.4391C6.28331 28.5437 5.87221 28.5306 5.49089 28.4013C5.10958 28.2721 4.77524 28.0325 4.53026 27.713C4.28528 27.3935 4.1407 27.0084 4.11484 26.6067C4.08898 26.2049 4.18301 25.8045 4.38501 25.4562C4.65549 24.9911 5.09932 24.6522 5.61925 24.5137C6.13917 24.3753 6.69278 24.4486 7.15875 24.7176L7.15237 24.7112ZM3.82728 22.4484C3.89258 22.3757 3.97801 22.3239 4.07274 22.2998C4.16746 22.2756 4.26723 22.2801 4.35941 22.3127C4.45158 22.3452 4.53201 22.4044 4.59051 22.4828C4.64901 22.5611 4.68294 22.655 4.68802 22.7526C4.69309 22.8503 4.66908 22.9472 4.61902 23.0312C4.56896 23.1151 4.4951 23.1824 4.4068 23.2243C4.3185 23.2663 4.21974 23.2811 4.12302 23.2669C4.02629 23.2527 3.93596 23.2101 3.86347 23.1445C3.81526 23.1012 3.77606 23.0489 3.74813 22.9905C3.72021 22.932 3.7041 22.8686 3.70074 22.804C3.69737 22.7393 3.70682 22.6746 3.72854 22.6136C3.75026 22.5525 3.78381 22.4964 3.82728 22.4484V22.4484ZM1.48567 26.4929C1.51622 26.4007 1.57328 26.3195 1.64971 26.2596C1.72614 26.1996 1.81855 26.1635 1.91537 26.1559C2.0122 26.1482 2.10915 26.1692 2.19409 26.2163C2.27902 26.2634 2.34818 26.3346 2.3929 26.4208C2.43762 26.507 2.45592 26.6045 2.44551 26.7011C2.4351 26.7976 2.39645 26.889 2.33438 26.9637C2.27231 27.0384 2.18959 27.0932 2.09657 27.1211C2.00354 27.1491 1.90434 27.149 1.81137 27.1208C1.74762 27.1012 1.68854 27.0688 1.6377 27.0256C1.58687 26.9824 1.54536 26.9293 1.51569 26.8696C1.48602 26.8099 1.46881 26.7447 1.46512 26.6781C1.46142 26.6115 1.47131 26.5449 1.49419 26.4822L1.48567 26.4929ZM1.00671 28.7812C1.0169 28.6841 1.05564 28.5922 1.11804 28.5171C1.18044 28.442 1.2637 28.3871 1.35729 28.3593C1.45089 28.3315 1.55062 28.3321 1.64389 28.3609C1.73716 28.3898 1.81978 28.4457 1.88131 28.5215C1.94285 28.5973 1.98053 28.6896 1.98961 28.7868C1.99868 28.884 1.97874 28.9817 1.9323 29.0676C1.88586 29.1535 1.81501 29.2237 1.7287 29.2693C1.64238 29.3149 1.54448 29.334 1.44736 29.324C1.38276 29.3173 1.3201 29.298 1.26297 29.2671C1.20585 29.2362 1.15537 29.1944 1.11444 29.144C1.07351 29.0935 1.04293 29.0355 1.02444 28.9733C1.00596 28.911 0.99993 28.8457 1.00671 28.7812V28.7812ZM1.00671 31.1227C0.996297 31.0255 1.01494 30.9275 1.06028 30.8409C1.10562 30.7544 1.17562 30.6832 1.26141 30.6364C1.34721 30.5897 1.44495 30.5694 1.54227 30.5782C1.63959 30.587 1.7321 30.6245 1.80811 30.6859C1.88412 30.7473 1.94021 30.8299 1.96928 30.9232C1.99834 31.0165 1.99908 31.1163 1.9714 31.21C1.94371 31.3037 1.88885 31.3871 1.81376 31.4496C1.73866 31.5121 1.64671 31.5509 1.54954 31.5612C1.42009 31.575 1.29043 31.5371 1.18878 31.4557C1.08712 31.3744 1.02169 31.2563 1.00671 31.1269V31.1227ZM2.11578 33.7324C2.02286 33.7626 1.92306 33.7646 1.82901 33.7381C1.73497 33.7116 1.6509 33.6578 1.58745 33.5834C1.52401 33.5091 1.48403 33.4177 1.47258 33.3206C1.46113 33.2236 1.47873 33.1253 1.52314 33.0383C1.56755 32.9513 1.63679 32.8794 1.72208 32.8317C1.80737 32.784 1.90489 32.7627 2.0023 32.7705C2.0997 32.7783 2.19261 32.8147 2.26927 32.8753C2.34594 32.9359 2.4029 33.0179 2.43296 33.1109C2.45354 33.1728 2.46165 33.2381 2.45682 33.3032C2.45199 33.3682 2.43432 33.4317 2.40483 33.4899C2.37534 33.5481 2.33461 33.5998 2.285 33.6422C2.23539 33.6846 2.17787 33.7167 2.11578 33.7367V33.7324ZM3.12267 35.7376C3.03807 35.7866 2.94081 35.8095 2.84322 35.8032C2.74564 35.7969 2.65212 35.7617 2.57452 35.7022C2.49692 35.6427 2.43873 35.5615 2.40732 35.4689C2.37592 35.3763 2.37271 35.2765 2.39811 35.1821C2.42351 35.0876 2.47638 35.0029 2.55 34.9385C2.62363 34.8742 2.7147 34.8331 2.81168 34.8206C2.90866 34.808 3.00719 34.8246 3.09476 34.8681C3.18234 34.9116 3.25503 34.9801 3.30361 35.065C3.3364 35.1212 3.35772 35.1834 3.36637 35.248C3.37501 35.3125 3.37081 35.3781 3.35399 35.4411C3.33717 35.504 3.30808 35.5629 3.26838 35.6146C3.22868 35.6662 3.17916 35.7095 3.12267 35.7419V35.7376ZM3.30361 24.8346C3.25477 24.9192 3.18195 24.9874 3.09435 25.0306C3.00676 25.0738 2.90832 25.09 2.8115 25.0773C2.71467 25.0645 2.62379 25.0234 2.55035 24.959C2.47692 24.8946 2.42422 24.8099 2.39893 24.7156C2.37364 24.6212 2.37688 24.5215 2.40825 24.429C2.43962 24.3365 2.49771 24.2554 2.57517 24.196C2.65263 24.1365 2.74599 24.1013 2.84345 24.0949C2.9409 24.0884 3.03807 24.1111 3.12267 24.1598C3.17944 24.1923 3.22921 24.2356 3.2691 24.2874C3.30898 24.3392 3.33819 24.3984 3.35502 24.4616C3.37185 24.5247 3.37598 24.5906 3.36715 24.6554C3.35833 24.7202 3.33673 24.7825 3.30361 24.8389V24.8346ZM4.38288 34.4413C4.18055 34.0931 4.08616 33.6928 4.11167 33.2909C4.13719 32.8891 4.28146 32.5039 4.5262 32.1842C4.77094 31.8644 5.10512 31.6246 5.48636 31.495C5.86761 31.3654 6.27874 31.352 6.66763 31.4564C7.05652 31.5608 7.40565 31.7783 7.67074 32.0814C7.93583 32.3845 8.10495 32.7595 8.15665 33.1588C8.20834 33.5581 8.14029 33.9637 7.96112 34.3243C7.78194 34.6849 7.49972 34.9842 7.15024 35.1842C6.68471 35.4506 6.13283 35.5224 5.61461 35.3841C5.09639 35.2458 4.65373 34.9085 4.38288 34.4455V34.4413ZM8.00173 20.605C7.91202 20.6439 7.81277 20.6553 7.71656 20.6378C7.62036 20.6202 7.53153 20.5745 7.46133 20.5064C7.39113 20.4384 7.34273 20.351 7.32225 20.2553C7.30178 20.1597 7.31015 20.0602 7.34632 19.9693C7.38248 19.8785 7.44481 19.8004 7.5254 19.745C7.60598 19.6896 7.7012 19.6594 7.79899 19.6581C7.89677 19.6569 7.99272 19.6847 8.07467 19.7381C8.15662 19.7915 8.22088 19.868 8.25931 19.9579C8.28536 20.0175 8.29937 20.0818 8.30051 20.1468C8.30166 20.2119 8.28993 20.2766 8.26599 20.3371C8.24205 20.3977 8.20638 20.4529 8.16103 20.4996C8.11568 20.5463 8.06154 20.5835 8.00173 20.6093V20.605ZM14.8733 19.5641C14.853 19.6597 14.8047 19.7471 14.7347 19.8153C14.6647 19.8835 14.576 19.9293 14.4799 19.9471C14.3837 19.9648 14.2845 19.9536 14.1948 19.915C14.105 19.8763 14.0287 19.8118 13.9756 19.7298C13.9225 19.6477 13.8949 19.5518 13.8964 19.454C13.8979 19.3563 13.9283 19.2612 13.9838 19.1808C14.0394 19.1004 14.1176 19.0382 14.2084 19.0023C14.2993 18.9663 14.3988 18.9581 14.4944 18.9787C14.5582 18.9921 14.6188 19.018 14.6725 19.055C14.7262 19.092 14.7721 19.1393 14.8073 19.1942C14.8426 19.249 14.8666 19.3104 14.8779 19.3746C14.8892 19.4389 14.8877 19.5047 14.8733 19.5683V19.5641ZM20.4612 23.1402C20.3887 23.2058 20.2984 23.2484 20.2017 23.2626C20.105 23.2768 20.0062 23.262 19.9179 23.2201C19.8296 23.1781 19.7557 23.1109 19.7057 23.0269C19.6556 22.9429 19.6316 22.846 19.6367 22.7484C19.6418 22.6508 19.6757 22.5568 19.7342 22.4785C19.7927 22.4002 19.8731 22.341 19.9653 22.3084C20.0575 22.2758 20.1572 22.2713 20.252 22.2955C20.3467 22.3197 20.4321 22.3714 20.4974 22.4442C20.5413 22.4924 20.5751 22.5488 20.5971 22.6102C20.619 22.6716 20.6286 22.7367 20.6252 22.8019C20.6218 22.867 20.6056 22.9308 20.5775 22.9896C20.5493 23.0484 20.5098 23.101 20.4612 23.1445V23.1402Z" fill="black"/>
<path d="M35.4039 47.6417H21.2266L24.4835 33.4648H32.1491L35.4039 47.6417Z" fill="black" stroke="white" stroke-width="0.291667" stroke-miterlimit="10"/>
<path d="M28.5564 38.7422H28.0711C27.1376 38.7422 26.3809 39.4989 26.3809 40.4323V42.8015C26.3809 43.735 27.1376 44.4917 28.0711 44.4917H28.5564C29.4899 44.4917 30.2466 43.735 30.2466 42.8015V40.4323C30.2466 39.4989 29.4899 38.7422 28.5564 38.7422Z" fill="white" stroke="#1D1D1B" stroke-width="0.263889" stroke-miterlimit="10"/>
<path d="M54.9821 5.92578V38.1281C54.9821 38.576 54.8044 39.0055 54.4878 39.3225C54.1713 39.6394 53.7419 39.8177 53.294 39.8182H3.33475C2.88751 39.8149 2.45953 39.6358 2.14328 39.3195C1.82702 39.0033 1.64787 38.5753 1.64453 38.1281V35.9824" fill="black"/>
<path d="M54.9821 5.92578V38.1281C54.9821 38.576 54.8044 39.0055 54.4878 39.3225C54.1713 39.6394 53.7419 39.8177 53.294 39.8182H3.33475C2.88751 39.8149 2.45953 39.6358 2.14328 39.3195C1.82702 39.0033 1.64787 38.5753 1.64453 38.1281V35.9824" stroke="#F7F9FA" stroke-width="0.263889" stroke-miterlimit="10"/>
<path d="M52.3249 7.44922V34.9919H4.30273" fill="white"/>
<path d="M52.3249 7.44922V34.9919H4.30273" stroke="black" stroke-width="0.291667" stroke-miterlimit="10"/>
<path d="M6.70182 35.9805H5.06056C4.64203 35.9805 4.30273 36.3197 4.30273 36.7383V37.7196C4.30273 38.1381 4.64203 38.4774 5.06056 38.4774H6.70182C7.12036 38.4774 7.45965 38.1381 7.45965 37.7196V36.7383C7.45965 36.3197 7.12036 35.9805 6.70182 35.9805Z" fill="white" stroke="black" stroke-width="0.222222" stroke-miterlimit="10"/>
<path d="M51.569 35.9805H49.9278C49.5092 35.9805 49.1699 36.3197 49.1699 36.7383V37.7196C49.1699 38.1381 49.5092 38.4774 49.9278 38.4774H51.569C51.9875 38.4774 52.3268 38.1381 52.3268 37.7196V36.7383C52.3268 36.3197 51.9875 35.9805 51.569 35.9805Z" fill="white" stroke="black" stroke-width="0.222222" stroke-miterlimit="10"/>
<path d="M45.9616 35.9805H44.3203C43.9018 35.9805 43.5625 36.3197 43.5625 36.7383V37.7196C43.5625 38.1381 43.9018 38.4774 44.3203 38.4774H45.9616C46.3801 38.4774 46.7194 38.1381 46.7194 37.7196V36.7383C46.7194 36.3197 46.3801 35.9805 45.9616 35.9805Z" fill="white" stroke="black" stroke-width="0.222222" stroke-miterlimit="10"/>
<path d="M40.3522 35.9805H38.711C38.2924 35.9805 37.9531 36.3197 37.9531 36.7383V37.7196C37.9531 38.1381 38.2924 38.4774 38.711 38.4774H40.3522C40.7707 38.4774 41.11 38.1381 41.11 37.7196V36.7383C41.11 36.3197 40.7707 35.9805 40.3522 35.9805Z" fill="white" stroke="black" stroke-width="0.222222" stroke-miterlimit="10"/>
<path d="M34.7448 35.9805H33.1035C32.685 35.9805 32.3457 36.3197 32.3457 36.7383V37.7196C32.3457 38.1381 32.685 38.4774 33.1035 38.4774H34.7448C35.1633 38.4774 35.5026 38.1381 35.5026 37.7196V36.7383C35.5026 36.3197 35.1633 35.9805 34.7448 35.9805Z" fill="white" stroke="black" stroke-width="0.222222" stroke-miterlimit="10"/>
<path d="M29.1354 35.9805H27.4942C27.0756 35.9805 26.7363 36.3197 26.7363 36.7383V37.7196C26.7363 38.1381 27.0756 38.4774 27.4942 38.4774H29.1354C29.5539 38.4774 29.8932 38.1381 29.8932 37.7196V36.7383C29.8932 36.3197 29.5539 35.9805 29.1354 35.9805Z" fill="white" stroke="black" stroke-width="0.222222" stroke-miterlimit="10"/>
<path d="M23.528 35.9805H21.8867C21.4682 35.9805 21.1289 36.3197 21.1289 36.7383V37.7196C21.1289 38.1381 21.4682 38.4774 21.8867 38.4774H23.528C23.9465 38.4774 24.2858 38.1381 24.2858 37.7196V36.7383C24.2858 36.3197 23.9465 35.9805 23.528 35.9805Z" fill="white" stroke="black" stroke-width="0.222222" stroke-miterlimit="10"/>
<path d="M17.9206 35.9805H16.2793C15.8608 35.9805 15.5215 36.3197 15.5215 36.7383V37.7196C15.5215 38.1381 15.8608 38.4774 16.2793 38.4774H17.9206C18.3391 38.4774 18.6784 38.1381 18.6784 37.7196V36.7383C18.6784 36.3197 18.3391 35.9805 17.9206 35.9805Z" fill="white" stroke="black" stroke-width="0.222222" stroke-miterlimit="10"/>
<path d="M12.3092 35.9805H10.668C10.2494 35.9805 9.91016 36.3197 9.91016 36.7383V37.7196C9.91016 38.1381 10.2494 38.4774 10.668 38.4774H12.3092C12.7278 38.4774 13.0671 38.1381 13.0671 37.7196V36.7383C13.0671 36.3197 12.7278 35.9805 12.3092 35.9805Z" fill="white" stroke="black" stroke-width="0.222222" stroke-miterlimit="10"/>
<path d="M38.0189 47.1406H18.0002C17.5018 47.1406 17.0977 47.5447 17.0977 48.0432V49.0138C17.0977 49.5123 17.5018 49.9164 18.0002 49.9164H38.0189C38.5174 49.9164 38.9215 49.5123 38.9215 49.0138V48.0432C38.9215 47.5447 38.5174 47.1406 38.0189 47.1406Z" fill="#1D1D1B" stroke="white" stroke-width="0.263889" stroke-miterlimit="10"/>
<path d="M98.3171 28.75V32.5922H97.9786V30.5615C97.9786 30.1549 97.9786 29.8143 98.0106 29.4737H97.9893C97.8892 29.7483 97.736 30.1123 97.5933 30.4827L97.1207 31.6918H96.7823L96.3097 30.4827C96.1671 30.1166 96.0138 29.7483 95.9138 29.4737H95.8925C95.9138 29.8143 95.9244 30.1549 95.9244 30.5615V32.5922H95.5859V28.75H95.9478L96.6333 30.4082C96.7312 30.6551 96.8696 31.0468 96.9398 31.2597H96.9632C97.0335 31.0468 97.1761 30.6509 97.2698 30.4082L97.9552 28.75H98.3171Z" fill="black"/>
<path d="M99.0352 31.6157V30.6876C99.0352 30.0128 99.4183 29.6445 99.9952 29.6445C100.572 29.6445 100.955 30.0128 100.955 30.6876V31.6157C100.955 32.2904 100.572 32.6587 99.9952 32.6587C99.4183 32.6587 99.0352 32.2904 99.0352 31.6157ZM100.625 31.6157V30.6876C100.625 30.1895 100.385 29.9638 99.9867 29.9638C99.5886 29.9638 99.3481 30.1895 99.3481 30.6876V31.6157C99.3481 32.1159 99.5908 32.3394 99.9867 32.3394C100.383 32.3394 100.625 32.1159 100.625 31.6157Z" fill="black"/>
<path d="M103.163 29.7109L102.35 32.5931H101.999L101.182 29.7109H101.52L101.976 31.3968C102.037 31.6331 102.125 32.012 102.163 32.1695H102.184C102.223 32.012 102.312 31.6331 102.372 31.3968L102.827 29.7109H103.163Z" fill="black"/>
<path d="M103.463 28.9145C103.463 28.8622 103.478 28.811 103.507 28.7673C103.535 28.7236 103.577 28.6895 103.625 28.6691C103.673 28.6488 103.726 28.6433 103.777 28.6533C103.829 28.6632 103.876 28.6882 103.913 28.725C103.95 28.7618 103.976 28.8088 103.986 28.8601C103.996 28.9114 103.991 28.9645 103.971 29.0129C103.951 29.0613 103.918 29.1026 103.874 29.1317C103.831 29.1608 103.779 29.1763 103.727 29.1763C103.692 29.1785 103.657 29.1732 103.624 29.1608C103.591 29.1485 103.561 29.1293 103.537 29.1046C103.512 29.0799 103.492 29.0501 103.48 29.0174C103.467 28.9846 103.461 28.9496 103.463 28.9145V28.9145ZM103.568 29.7085H103.891V32.5907H103.568V29.7085Z" fill="black"/>
<path d="M106.48 31.7093C106.435 32.3139 106.08 32.6481 105.475 32.6481C104.915 32.6481 104.547 32.2798 104.547 31.6221V30.6727C104.547 30.0128 104.922 29.6445 105.481 29.6445C106.041 29.6445 106.441 30.0128 106.441 30.6727V31.3113H104.877V31.6242C104.877 32.1053 105.107 32.3309 105.486 32.3309C105.911 32.3309 106.111 32.1329 106.156 31.7115L106.48 31.7093ZM104.877 30.6727V31.0069H106.118V30.6727C106.118 30.1895 105.882 29.9638 105.479 29.9638C105.077 29.9638 104.877 30.1895 104.877 30.6727Z" fill="black"/>
<path d="M106.899 31.7352H107.223C107.217 31.819 107.229 31.9031 107.26 31.9815C107.29 32.0598 107.338 32.1304 107.399 32.1881C107.46 32.2458 107.533 32.2891 107.613 32.315C107.693 32.3408 107.778 32.3485 107.861 32.3376C108.219 32.3376 108.428 32.1566 108.428 31.8501C108.428 31.1477 106.938 31.4052 106.938 30.4175C106.938 29.9514 107.282 29.6427 107.804 29.6427C107.923 29.6343 108.042 29.6513 108.153 29.6926C108.265 29.7339 108.366 29.7985 108.451 29.8821C108.535 29.9657 108.601 30.0664 108.644 30.1774C108.686 30.2885 108.705 30.4074 108.698 30.5261H108.374C108.382 30.4494 108.372 30.372 108.346 30.2995C108.32 30.227 108.278 30.1612 108.223 30.1067C108.169 30.0522 108.103 30.0104 108.031 29.9843C107.958 29.9582 107.881 29.9484 107.804 29.9556C107.463 29.9556 107.265 30.1323 107.265 30.4282C107.265 31.103 108.755 30.8539 108.755 31.8608C108.755 32.3376 108.4 32.6569 107.861 32.6569C107.736 32.6676 107.609 32.6514 107.491 32.6094C107.372 32.5674 107.263 32.5006 107.172 32.4134C107.081 32.3262 107.01 32.2206 106.963 32.1037C106.916 31.9867 106.894 31.8611 106.899 31.7352V31.7352Z" fill="black"/>
<path d="M112.285 30.6017V32.5941H112.004L111.976 32.3259C111.902 32.4325 111.803 32.5189 111.687 32.5769C111.571 32.635 111.442 32.6628 111.312 32.6579C111.193 32.6664 111.073 32.6496 110.96 32.6086C110.848 32.5676 110.745 32.5033 110.659 32.4199C110.573 32.3365 110.506 32.236 110.461 32.1248C110.417 32.0136 110.396 31.8942 110.401 31.7746C110.401 31.219 110.759 30.9124 111.389 30.9124H111.961V30.6059C111.961 30.1802 111.763 29.9567 111.389 29.9567C111.317 29.95 111.245 29.9579 111.177 29.9801C111.109 30.0023 111.046 30.0383 110.992 30.0857C110.938 30.1332 110.894 30.1912 110.864 30.2561C110.833 30.321 110.816 30.3916 110.814 30.4633H110.49C110.493 30.3484 110.518 30.2352 110.566 30.1307C110.614 30.0262 110.683 29.9326 110.768 29.8558C110.854 29.7789 110.954 29.7205 111.063 29.684C111.172 29.6475 111.287 29.6338 111.402 29.6438C111.949 29.6459 112.285 30.0142 112.285 30.6017ZM111.961 31.7809V31.2168H111.378C110.952 31.2168 110.74 31.4148 110.74 31.7809C110.74 32.1471 110.997 32.3408 111.378 32.3408C111.454 32.3458 111.53 32.335 111.602 32.309C111.673 32.2829 111.738 32.2423 111.793 32.1896C111.848 32.1369 111.892 32.0734 111.92 32.003C111.949 31.9326 111.963 31.857 111.961 31.7809V31.7809Z" fill="black"/>
<path d="M114.853 30.7396V32.583H114.53V30.7885C114.53 30.2074 114.376 29.9371 113.997 29.9371C113.619 29.9371 113.333 30.2713 113.333 30.8311V32.5766H113.01V29.7093H113.278L113.333 30.0669C113.405 29.9335 113.513 29.823 113.645 29.7478C113.777 29.6725 113.927 29.6356 114.078 29.6412C114.545 29.6433 114.853 29.9562 114.853 30.7396Z" fill="black"/>
<path d="M117.356 28.6094V32.59H117.092L117.05 32.3217C116.972 32.4281 116.869 32.514 116.75 32.5722C116.632 32.6304 116.501 32.6591 116.369 32.6559C115.847 32.6559 115.475 32.2813 115.475 31.5533V30.7231C115.475 30.01 115.815 29.6418 116.369 29.6418C116.498 29.6385 116.627 29.6663 116.744 29.723C116.86 29.7797 116.962 29.8635 117.039 29.9675V28.6094H117.356ZM117.037 31.5639V30.7231C117.037 30.2633 116.801 29.944 116.439 29.944C116.013 29.944 115.8 30.1739 115.8 30.7231V31.5533C115.8 32.1174 116.034 32.3537 116.439 32.3537C116.769 32.3537 117.037 32.1004 117.037 31.5639Z" fill="black"/>
<path d="M119.149 31.7352H119.473C119.467 31.819 119.479 31.9032 119.51 31.9815C119.54 32.0598 119.588 32.1304 119.649 32.1881C119.71 32.2458 119.783 32.2891 119.863 32.315C119.943 32.3408 120.028 32.3486 120.111 32.3376C120.469 32.3376 120.678 32.1566 120.678 31.8501C120.678 31.1477 119.188 31.4052 119.188 30.4175C119.188 29.9514 119.532 29.6427 120.054 29.6427C120.173 29.6343 120.292 29.6513 120.403 29.6926C120.515 29.7339 120.616 29.7985 120.701 29.8821C120.785 29.9657 120.851 30.0664 120.894 30.1774C120.936 30.2885 120.955 30.4074 120.948 30.5261H120.624C120.632 30.4494 120.622 30.372 120.596 30.2995C120.57 30.227 120.528 30.1612 120.473 30.1067C120.419 30.0522 120.353 30.0104 120.281 29.9843C120.208 29.9582 120.131 29.9484 120.054 29.9556C119.713 29.9556 119.515 30.1323 119.515 30.4282C119.515 31.103 121.005 30.8539 121.005 31.8608C121.005 32.3376 120.648 32.6569 120.109 32.6569C119.984 32.6673 119.858 32.6508 119.739 32.6087C119.62 32.5666 119.512 32.4997 119.421 32.4126C119.331 32.3254 119.259 32.2199 119.212 32.1031C119.166 31.9863 119.144 31.8609 119.149 31.7352V31.7352Z" fill="black"/>
<path d="M122.706 32.3112V32.6177H122.54C122.014 32.6177 121.723 32.2877 121.723 31.7343V30.0101H121.295V29.7078H121.721V29.0352H122.044V29.6993H122.638V30.0016H122.044V31.7258C122.044 32.1047 122.2 32.3026 122.538 32.3026L122.706 32.3112Z" fill="black"/>
<path d="M124.546 29.6767V30.0279C124.43 29.9863 124.308 29.9662 124.184 29.9683C123.774 29.9683 123.503 30.2961 123.503 30.8453V32.5908H123.18V29.7107H123.448L123.503 30.0747C123.577 29.9412 123.686 29.8306 123.819 29.7555C123.951 29.6803 124.102 29.6434 124.255 29.649C124.353 29.6465 124.451 29.6558 124.546 29.6767V29.6767Z" fill="black"/>
<path d="M126.814 31.7086C126.818 31.8393 126.795 31.9695 126.746 32.0905C126.696 32.2115 126.621 32.3205 126.526 32.4102C126.431 32.4999 126.318 32.5682 126.194 32.6106C126.07 32.653 125.939 32.6684 125.809 32.6559C125.251 32.6559 124.883 32.2876 124.883 31.6299V30.6805C124.883 30.0206 125.255 29.6523 125.815 29.6523C126.375 29.6523 126.775 30.0206 126.775 30.6805V31.3191H125.211V31.632C125.211 32.1131 125.443 32.3387 125.822 32.3387C126.247 32.3387 126.447 32.1407 126.49 31.7193L126.814 31.7086ZM125.211 30.672V31.0062H126.452V30.672C126.452 30.1888 126.215 29.9631 125.813 29.9631C125.411 29.9631 125.211 30.1888 125.211 30.672Z" fill="black"/>
<path d="M129.152 30.5995V32.592H128.873L128.845 32.3237C128.772 32.4308 128.672 32.5176 128.556 32.576C128.44 32.6344 128.311 32.6626 128.181 32.6579C128.062 32.6664 127.942 32.6496 127.829 32.6086C127.717 32.5676 127.614 32.5033 127.528 32.4199C127.442 32.3365 127.375 32.236 127.33 32.1248C127.286 32.0135 127.265 31.8942 127.27 31.7745C127.27 31.219 127.628 30.9124 128.258 30.9124H128.828V30.6059C128.828 30.1802 128.63 29.9567 128.258 29.9567C128.186 29.95 128.114 29.9579 128.046 29.9801C127.977 30.0023 127.914 30.0382 127.86 30.0856C127.806 30.1331 127.763 30.191 127.732 30.256C127.701 30.3209 127.684 30.3915 127.681 30.4633H127.357C127.36 30.3484 127.385 30.2352 127.433 30.1307C127.481 30.0262 127.55 29.9326 127.635 29.8558C127.721 29.7789 127.821 29.7205 127.93 29.684C128.039 29.6475 128.154 29.6338 128.269 29.6438C128.818 29.6438 129.152 30.012 129.152 30.5995ZM128.828 31.7788V31.2147H128.247C127.822 31.2147 127.609 31.4127 127.609 31.7788C127.609 32.1449 127.866 32.3386 128.247 32.3386C128.323 32.3434 128.399 32.3323 128.47 32.3062C128.541 32.28 128.606 32.2393 128.661 32.1866C128.716 32.134 128.759 32.0705 128.788 32.0003C128.816 31.9301 128.83 31.8547 128.828 31.7788V31.7788Z" fill="black"/>
<path d="M133.155 30.7565V32.5893H132.831V30.7842C132.831 30.1797 132.65 29.9498 132.337 29.9498C131.948 29.9498 131.679 30.284 131.679 30.8438V32.5893H131.356V30.7842C131.356 30.1797 131.162 29.9498 130.845 29.9498C130.46 29.9498 130.206 30.284 130.206 30.8438V32.5893H129.883V29.7071H130.153L130.202 30.0817C130.266 29.9463 130.368 29.8325 130.496 29.7542C130.624 29.6759 130.772 29.6366 130.922 29.6411C131.083 29.6389 131.241 29.6931 131.367 29.7946C131.493 29.896 131.579 30.0382 131.611 30.1967C131.668 30.0301 131.776 29.886 131.921 29.786C132.065 29.6859 132.238 29.6351 132.414 29.6411C132.855 29.6411 133.155 29.9923 133.155 30.7565Z" fill="black"/>
<path d="M133.744 28.9145C133.744 28.8622 133.759 28.811 133.788 28.7673C133.817 28.7236 133.858 28.6895 133.906 28.6691C133.954 28.6488 134.007 28.6433 134.059 28.6533C134.11 28.6632 134.157 28.6882 134.194 28.725C134.231 28.7618 134.257 28.8088 134.267 28.8601C134.278 28.9114 134.272 28.9645 134.253 29.0129C134.233 29.0613 134.199 29.1026 134.155 29.1317C134.112 29.1608 134.061 29.1763 134.008 29.1763C133.973 29.1785 133.938 29.1732 133.905 29.1608C133.873 29.1485 133.843 29.1293 133.818 29.1046C133.793 29.0799 133.773 29.0501 133.761 29.0174C133.748 28.9846 133.743 28.9496 133.744 28.9145V28.9145ZM133.849 29.7085H134.172V32.5907H133.855L133.849 29.7085Z" fill="black"/>
<path d="M136.742 30.7395V32.5829H136.41V30.7885C136.41 30.2073 136.257 29.937 135.878 29.937C135.499 29.937 135.213 30.2712 135.213 30.831V32.5765H134.898V29.7092H135.167L135.222 30.0668C135.295 29.9336 135.403 29.8233 135.535 29.7481C135.667 29.6729 135.817 29.6359 135.969 29.6411C136.435 29.6432 136.742 29.9562 136.742 30.7395Z" fill="black"/>
<path d="M139.25 29.7085V32.7887C139.25 33.3038 138.888 33.6401 138.334 33.6401C138.219 33.6491 138.102 33.6344 137.993 33.5969C137.883 33.5594 137.782 33.4998 137.696 33.4219C137.61 33.3439 137.541 33.2493 137.493 33.1437C137.445 33.0381 137.419 32.9238 137.417 32.8078H137.73C137.731 32.8837 137.748 32.9585 137.779 33.0275C137.811 33.0964 137.857 33.158 137.914 33.2081C137.971 33.2583 138.038 33.2959 138.11 33.3186C138.183 33.3413 138.259 33.3486 138.334 33.34C138.411 33.3488 138.49 33.3407 138.563 33.3161C138.637 33.2915 138.704 33.2512 138.761 33.1978C138.817 33.1445 138.861 33.0795 138.89 33.0073C138.918 32.9352 138.931 32.8576 138.926 32.7801V32.2288C138.848 32.3203 138.749 32.3926 138.639 32.4402C138.528 32.4877 138.408 32.5094 138.288 32.5034C137.732 32.5034 137.359 32.1352 137.359 31.4774V30.7388C137.359 30.0193 137.732 29.6446 138.277 29.6446C138.408 29.6426 138.537 29.6744 138.653 29.7371C138.768 29.7997 138.865 29.8911 138.935 30.0022L138.979 29.7106L139.25 29.7085ZM138.926 31.4774V30.6813C138.926 30.181 138.662 29.9511 138.345 29.9511C137.938 29.9511 137.691 30.181 137.691 30.7366V31.4774C137.691 31.9649 137.938 32.1948 138.345 32.1948C138.707 32.1948 138.926 31.9649 138.926 31.4774Z" fill="black"/>
</g>
<defs>
<clipPath id="clip0">
<rect width="139.583" height="50" fill="white" transform="translate(0.208984)"/>
</clipPath>
</defs>
</svg>
